/* XPM */
static const char * IconL2Inactif_xpm[] = {
"128 64 145 2",
"  	c #8187AB",
". 	c #8187A9",
"+ 	c #8387AA",
"@ 	c #8186AC",
"# 	c #8287AD",
"$ 	c #8185A8",
"% 	c #8288AC",
"& 	c #8288AA",
"* 	c #8187A7",
"= 	c #8286A9",
"- 	c #8286AB",
"; 	c #8387AC",
"> 	c #8086A8",
", 	c #8085AB",
"' 	c #8088AC",
") 	c #8189AE",
"! 	c #7E86AA",
"~ 	c #8086AA",
"{ 	c #7F87AC",
"] 	c #8286AC",
"^ 	c #7F87AB",
"/ 	c #8088AD",
"( 	c #60617D",
"_ 	c #20242D",
": 	c #2A2E39",
"< 	c #717493",
"[ 	c #7F88A9",
"} 	c #797DA2",
"| 	c #585A71",
"1 	c #46495C",
"2 	c #454859",
"3 	c #555972",
"4 	c #707593",
"5 	c #787EA0",
"6 	c #09090B",
"7 	c #000100",
"8 	c #000002",
"9 	c #24242C",
"0 	c #797C9D",
"a 	c #343748",
"b 	c #010005",
"c 	c #000000",
"d 	c #010101",
"e 	c #000201",
"f 	c #2A2E3A",
"g 	c #737493",
"h 	c #8389AB",
"i 	c #5E6381",
"j 	c #010000",
"k 	c #000004",
"l 	c #676B86",
"m 	c #06090E",
"n 	c #010002",
"o 	c #08090B",
"p 	c #666C8C",
"q 	c #5F637E",
"r 	c #8387AD",
"s 	c #181B22",
"t 	c #08090D",
"u 	c #363545",
"v 	c #46495A",
"w 	c #333743",
"x 	c #121317",
"y 	c #8287AF",
"z 	c #4D5266",
"A 	c #1B1B23",
"B 	c #686C89",
"C 	c #8186AE",
"D 	c #2B2D39",
"E 	c #020001",
"F 	c #5E627D",
"G 	c #7E87A8",
"H 	c #47485A",
"I 	c #292B37",
"J 	c #21242D",
"K 	c #0F1316",
"L 	c #5E627B",
"M 	c #000200",
"N 	c #252531",
"O 	c #3A404E",
"P 	c #555A70",
"Q 	c #565A75",
"R 	c #23232D",
"S 	c #5F6281",
"T 	c #686C85",
"U 	c #8287A7",
"V 	c #21232F",
"W 	c #010100",
"X 	c #57596E",
"Y 	c #020100",
"Z 	c #090A0E",
"` 	c #787D9D",
" .	c #676C89",
"..	c #46475B",
"+.	c #8089AA",
"@.	c #010103",
"#.	c #45485B",
"$.	c #000103",
"%.	c #343645",
"&.	c #8288A8",
"*.	c #797E9E",
"=.	c #191C25",
"-.	c #8386A9",
";.	c #60647F",
">.	c #797DA0",
",.	c #8086A6",
"'.	c #61627E",
").	c #1B1C21",
"!.	c #1A1B20",
"~.	c #1A1D26",
"{.	c #191C23",
"].	c #1B1B25",
"^.	c #787C9F",
"/.	c #7E88AB",
"(.	c #5E6377",
"_.	c #202430",
":.	c #21262C",
"<.	c #22252E",
"[.	c #23262F",
"}.	c #2A2D36",
"|.	c #464857",
"1.	c #2B2D3A",
"2.	c #45475C",
"3.	c #43485C",
"4.	c #707690",
"5.	c #5F6380",
"6.	c #111216",
"7.	c #8389AD",
"8.	c #1B1C20",
"9.	c #060A0B",
"0.	c #8386AF",
"a.	c #070B0E",
"b.	c #8386A7",
"c.	c #8185AB",
"d.	c #090A0F",
"e.	c #020202",
"f.	c #090909",
"g.	c #4E5164",
"h.	c #6A6B8A",
"i.	c #3C404C",
"j.	c #7F88A7",
"k.	c #8189B0",
"l.	c #8285AE",
"m.	c #8189AD",
"n.	c #8287B1",
"                                                                                                                                                                                                                                                                ",
"                                                                                                                                                                                                                                                                ",
"                                                                                                                                                                                                                                                                ",
"                                                                                                                                                                                                                                                                ",
"                                                                                                                                                                                                                                                                ",
"                                                                                                                                                                                                                                                                ",
"                                                                                                                                                                                                                                                                ",
"                                                                                                                                                                                                                                                                ",
"                                                                                                                                                                                                                                                                ",
"                                                                                                                                                                                                                                                                ",
"                                                                                                                                                                                                                                                                ",
"                                                                                                                                                                                                                                                                ",
"                                                                                                                                                                                                                                                                ",
"                                                                                                                                                                                                                                                                ",
"                                                                                                                                                                                                                                                                ",
"                                                                                                                                                                                                                                                                ",
"                                                                                  . + @ # $ % @                                 @ . &   #   %   * % @     = - ; %       %                                                                                       ",
"                                                                                @ @ > %   . @ #                                 #     %         # , % . . ' ) !       % % % ~ %                                                                                 ",
"                                                                                    %     ' ~ &                                 '     , # % .   % # @   % @ @ .         ~ % %                                                                                   ",
"                                                                                  % @ .   { %                                   *   #   . %     { % . # ] + =         %   ~ % %                                                                                 ",
"                                                                                . % = ; ]   @ .                                 # # , % @ @ % .     %     % ^ /       ~ %   %                                                                                   ",
"                                                                                #   ( _ : < # @                                 .   % [ . % ] } | 1 2 1 3 4 . %   ~ %                                                                                           ",
"                                                                                ~ 5 6 7 8 9   #                                 % @ @   ; 0 a 7 b c d 8 7 e f g . h ~                                                                                           ",
"                                                                                = i j j c k & .                                 - .   # l m 7 j 7 c c n j c c o p .           %                                                                                 ",
"                                                                                % q c c c c .                                   & r # ; s c c j t u v w 8 j c c x y . &   - #                                                                                   ",
"                                                                                % q c c c c .                                     % * z 7 c 8 A 5 - =   B t c 7 8 z   C . & . #                                                                                 ",
"                                                                                % q c c c c .                                   & ^ ; D c E c F G %   / @ H 8 c c I   # + ~ &                                                                                   ",
"                                                                                % q c c c c .                                   r   ; J n n K ; ;   % -   L M c c N >   - { % &                                                                                 ",
"                                                                                % q c c c c .                                   = ; . O 7 7 P @ ; ^       Q 8 8 k R % % = / ~ &                                                                                 ",
"                                                                                % q c c c c .                                   % - { % S T @ & ^ %   % U V c W 7 1     -   %                                                                                   ",
"                                                                                % q c c c c .                                     & ' % @ & % @ @ $ ; - X d Y j Z ` % .     @                                                                                   ",
"                                                                                % q c c c c .                                       = = % @ - & . ] C  .Z c 8 c ..+.@ , . - % @                                                                                 ",
"                                                                                - F W c @.c %   %         %   % %       %       %   %     & .   & ; #.$.n j 7 w . %     %     %                                                                                 ",
"                                                                                  q c c c e   #   % %     %           % % % ~ %       @ & - # ^ } %.7 7 $.c %.-   ~ % %     # @                                                                                 ",
"                                                                                  F d d c c &..   %       % % %         ~ % %   % .   # % %   *.=.8 j j 8 #.-.r @ %   ~       .                                                                                 ",
"                                                                                  ;.j c j 8 @ #             %         %   ~ % % .   % - . ' >.=.7 c d o L ' { . ~ % %   @ # & ,.                                                                                ",
"                                                                                U '.j c c c   %             %         ~ %   %   @ . % % & } =.j c k ).B #   % @   . . % @ @ @ %                                                                                 ",
"                                                                                * q c 8 c M   @ %   %     %       ~ %           @ ;   ^ >.!.j c j ~.}   - - = % @ @ %   > %   @                                                                                 ",
"                                                                                @ ;.8 7 d 8 + ]         %   ~ % . h ~           & , % } {.j n 7 ].^./.. - # {   + - @ # . . &                                                                                   ",
"                                                                                @ (.8 c j j _.:.<.J <.J <.J [.}.p .           %   '   |.8 8 8 c 1.2 2.2 #.1 2 2.3.4.+ @ #   % ]                                                                                 ",
"                                                                                % 5.7 j n c c 8 c c c c c c c c 6.] 7.- % [     -   ] 8.j d 8 j c c c c c c c c j 9.0.    .   .                                                                                 ",
"                                                                                  < 8 c W W c 8 c c c c c c c d a.. . - @ @ #     ^ % s @.c d c c c c c c c c c j 7 b.. %     @                                                                                 ",
"                                                                                  c.2 d.c 8 j j c c c c c c e.f.g.% ' % ~ %   % . ' @ h.x c c j c c c c c c c c 8 i.r # . &   @                                                                                 ",
"                                                                                j.@     ~ k.^   %       %   ~   + @ /   & %     ;   & - - ]                     l.#   .   ] r                                                                                   ",
"                                                                                  % = U &   = ]     %       % %   & @ @       >   @ . . r r   %                 &.^ [ %       .                                                                                 ",
"                                                                                - - - %   @   . %             % ' .   . - % @ &   #   @ ^ { m.[                 = y #   %   # &                                                                                 ",
"                                                                                / [ +., # . % #     %     % %   / ; % G + & @ . %     *   = = ] % % % % % % % % - ; $ % % & @ @                                                                                 ",
"                                                                                . % ~ %   & @ %               % ' - @ ' C   C & @ & - n.. # & ^                 '   % .     @ U                                                                                 ",
"                                                                                                                                                                                                                                                                ",
"                                                                                                                                                                                                                                                                ",
"                                                                                                                                                                                                                                                                ",
"                                                                                                                                                                                                                                                                ",
"                                                                                                                                                                                                                                                                ",
"                                                                                                                                                                                                                                                                ",
"                                                                                                                                                                                                                                                                ",
"                                                                                                                                                                                                                                                                ",
"                                                                                                                                                                                                                                                                ",
"                                                                                                                                                                                                                                                                ",
"                                                                                                                                                                                                                                                                ",
"                                                                                                                                                                                                                                                                ",
"                                                                                                                                                                                                                                                                ",
"                                                                                                                                                                                                                                                                ",
"                                                                                                                                                                                                                                                                ",
"                                                                                                                                                                                                                                                                "};
