/* XPM */
static const char * IconC1Inactif_xpm[] = {
"128 64 160 2",
"  	c #8187AB",
". 	c #8288AC",
"+ 	c #8085AB",
"@ 	c #8186AC",
"# 	c #8187A9",
"$ 	c #7F87AB",
"% 	c #8288AA",
"& 	c #8286A9",
"* 	c #8185AB",
"= 	c #8286AB",
"- 	c #8287AD",
"; 	c #8286AC",
"> 	c #8086A8",
", 	c #8285AE",
"' 	c #8189AE",
") 	c #8387AC",
"! 	c #8186AE",
"~ 	c #8185AA",
"{ 	c #8088AC",
"] 	c #727596",
"^ 	c #45475C",
"/ 	c #343643",
"( 	c #21232F",
"_ 	c #22252E",
": 	c #2A2C38",
"< 	c #46485D",
"[ 	c #6A6B89",
"} 	c #8487AA",
"| 	c #565B6F",
"1 	c #43485C",
"2 	c #797E9E",
"3 	c #7F88A9",
"4 	c #5F637C",
"5 	c #20252B",
"6 	c #000002",
"7 	c #010103",
"8 	c #010000",
"9 	c #010101",
"0 	c #000100",
"a 	c #0E1317",
"b 	c #5F647A",
"c 	c #61627E",
"d 	c #45485B",
"e 	c #000201",
"f 	c #000000",
"g 	c #010002",
"h 	c #000004",
"i 	c #3D3F4C",
"j 	c #797DA0",
"k 	c #060A0B",
"l 	c #8287A7",
"m 	c #090B0A",
"n 	c #222431",
"o 	c #21252E",
"p 	c #0F1316",
"q 	c #010100",
"r 	c #343645",
"s 	c #797E9C",
"t 	c #181B20",
"u 	c #8086AA",
"v 	c #05090A",
"w 	c #4F5168",
"x 	c #8385AC",
"y 	c #111216",
"z 	c #020005",
"A 	c #5F637E",
"B 	c #676A89",
"C 	c #191C21",
"D 	c #010005",
"E 	c #010200",
"F 	c #000103",
"G 	c #24242E",
"H 	c #060A0D",
"I 	c #696C8D",
"J 	c #000200",
"K 	c #2B2E37",
"L 	c #8287AF",
"M 	c #3D3F4E",
"N 	c #676C89",
"O 	c #4E5164",
"P 	c #8387AD",
"Q 	c #7F87AC",
"R 	c #7A7D9E",
"S 	c #3D404F",
"T 	c #08090D",
"U 	c #3C3F52",
"V 	c #101415",
"W 	c #8487A8",
"X 	c #2B2D39",
"Y 	c #8288A8",
"Z 	c #8088AF",
"` 	c #8085AD",
" .	c #46495C",
"..	c #191C23",
"+.	c #676B86",
"@.	c #21242D",
"#.	c #3A3D50",
"$.	c #8389A9",
"%.	c #7A7EA3",
"&.	c #444758",
"*.	c #7A7F9F",
"=.	c #7E87A8",
"-.	c #4E5067",
";.	c #7E86AA",
">.	c #8389AD",
",.	c #8187A7",
"'.	c #4C5069",
").	c #454859",
"!.	c #797DA2",
"~.	c #7F89AC",
"{.	c #8387AA",
"].	c #8088AD",
"^.	c #8089AA",
"/.	c #5E627B",
"(.	c #7E88AB",
"_.	c #8486AC",
":.	c #8386A9",
"<.	c #1B1C21",
"[.	c #44495F",
"}.	c #333645",
"|.	c #292C3B",
"1.	c #686C85",
"2.	c #333743",
"3.	c #323642",
"4.	c #8386AF",
"5.	c #8388AE",
"6.	c #333647",
"7.	c #121318",
"8.	c #4D5268",
"9.	c #090A0C",
"0.	c #7B7E9D",
"a.	c #090909",
"b.	c #3D3E50",
"c.	c #4C506B",
"d.	c #8385AB",
"e.	c #4D5266",
"f.	c #767FA0",
"g.	c #1A1B1F",
"h.	c #24242C",
"i.	c #5E647E",
"j.	c #44495C",
"k.	c #1B1B23",
"l.	c #686C87",
"m.	c #666C8C",
"n.	c #686C89",
"o.	c #020001",
"p.	c #171C22",
"q.	c #717493",
"r.	c #8389AB",
"s.	c #111217",
"t.	c #4C5167",
"u.	c #222430",
"v.	c #3C3F4E",
"w.	c #464759",
"x.	c #7F87AE",
"y.	c #676B88",
"z.	c #60617D",
"A.	c #5F6380",
"B.	c #686B8A",
"C.	c #8186A6",
"                                                                                                                                                                                                                                                                ",
"                                                                                                                                                                                                                                                                ",
"                                                                                                                                                                                                                                                                ",
"                                                                                                                                                                                                                                                                ",
"                                                                                                                                                                                                                                                                ",
"                                                                                                                                                                                                                                                                ",
"                                                                                                                                                                                                                                                                ",
"                                                                                                                                                                                                                                                                ",
"                                                                                                                                                                                                                                                                ",
"                                                                                                                                                                                                                                                                ",
"                                                                                                                                                                                                                                                                ",
"                                                                                                                                                                                                                                                                ",
"                                                                                                                                                                                                                                                                ",
"                                                                                                                                                                                                                                                                ",
"                                                                                                                                                                                                                                                                ",
"                                                                                                                                                                                                                                                                ",
"                                                                                .       . + @     #     @   . $                                   % & .   .                                                                                                     ",
"                                                                                *   %     . . # @ . # # & = =                                   @     @ # @ -                                                                                                   ",
"                                                                                - +   %     = ; #   @ .   . # %                                 # > .   - =   .                                                                                                 ",
"                                                                                  # . , . #   # #   ' + - @ - $                                   .   . + % # $                                                                                                 ",
"                                                                                & )   .       !       # & ~ .                                     @ @ { % & * !                                                                                                 ",
"                                                                                % @ -   @ ] ^ / ( _ : < [ } =                                   % % @ # ; | 1 2                                                                                                 ",
"                                                                                3   @ 4 5 6 7 8 8 8 9 6 0 a b ,                                     @ & c 6 0 _                                                                                                 ",
"                                                                                  & d 6 8 8 6 6 e f f g 8 f h i                                   -   j k f 8 9                                                                                                 ",
"                                                                @ .   @ . # l - $ ^ f f f 8 6 m n o p h 8 q f f r =   $ % = @ @     . @   % # . $   s t h g 8 f                                                                                                 ",
"                                                                .   . . u   . @ 4 6 8 f e v w x = ) ) 4 y 8 z f e A @ % + ) % . -   # % # - ! @ - B C D 8 E f F                                                                                                 ",
"                                                                    u   - @ @ % G f 8 f H I   3   #   - j p f J 8 K )   L   .       @   %   = j M 0 6 f 9 6 9 f                                                                                                 ",
"                                                                  )       @ @ N f q f 6 O =   - $ ; P     A 0 g g e =     Q     % @ . # ; R S J q 0 6 T 8 9 f f                                                                                                 ",
"                                                                . =   % ) .   U 9 0 0 V W   @ = $ # . u .   X 8 0 ( - Y # Z )   % ` .   &  .6 8 6 0 ..+.f f 6 f                                                                                                 ",
"                                                                . ) @ # = u . @.6 9 0 #.; % > # = % $ $.@ . %.&.d *.  #   . . # . @ =.{ * d 0 8 T  .; 3 6 f g 8                                                                                                 ",
"                                                                . = Q . = $ # T 6 8 f -..   -   &   -   % % ;.{ , @   - >.> Q . # - # ,.. ) '.).!.&   >.8 f 6 f                                                                                                 ",
"                                                                # & Q $ = {   f 0 8 6 A #   &   ~.@ & @     . $   3 @   # {.].  .   . .     .   $ .   Q 8 6 f f                                                                                                 ",
"                                                                # . @ ^.) .   f f 6 0 /.&   (._.# = = -   P =   {.(.. & % {.- .                         f f f f                                                                                                 ",
"                                                                  . + ^.= u . 0 f f f A   u ].  -   -   . ,.  = :.- + .     @ #                         f f f f                                                                                                 ",
"                                                                  @ - =.  % > <.9 f 8 [.. ; # ,.# % ,.l   . !.}.|.1.  @ . $   #                         f f f f                                                                                                 ",
"                                                                  @   $     . 2.6 f 6 3.% @ 4.@   @   5.@ = 6.f 0 7.#   = {   .                         f f f f                                                                                                 ",
"                                                                . . u . -     8.f f 6 9.& . u {     @ ^.@ 0.0 8 9 6 # % = $ . =                         f f f f                                                                                                 ",
"                                                                  . {.  @ = @ s a.6 f f d   $ $ { # - Q % b.6 8 6 ..P   @     =                         f f f f                                                                                                 ",
"                                                                . @ &   ].)     ^ f q 8 e c.d.  @ % & d.< 0 h f f e.@ .   & %                           f f f f                                                                                                 ",
"                                                                  @ & . $ =   @ f.g.f f 8 0 h.d A i.j.G 8 8 6 0 k.@ # % $ ;                             f f f f                                                                                                 ",
"                                                                                @ l.H f 8 8 f 0 6 f 6 f f 8 D a.m.#           .                 =       0 f 8 6                                                                                                 ",
"                                                                                @ & n.C 0 6 9 8 0 f 8 o.f 0 p.q.# r.u                             $ @ ; 6 E 8 s.                                                                                                ",
"                                                                                  % # ) t.u.0 9 6 0 0 6 ..t.) $   u .                           -   % . v.0 0 w.                                                                                                ",
"                                                                                # .   x.@ # P y.z./.A.{.) u .         u .   .                   # .   . & B.B.!                                                                                                 ",
"                                                                                  # -   3 { Q { @   ,.3 @ . >         .   u . .                 @ #     u % @ 3                                                                                                 ",
"                                                                                - .     C.  % @   #   P ) # . $         u . .                   Q # %   - & =                                                                                                   ",
"                                                                                        4.= = =       = = )   Q       . . . u .                 3 - + {.].P ) ;                                                                                                 ",
"                                                                                # -   #   . #   =     Q - % & = .       .                         = . & Q                                                                                                       ",
"                                                                                                                                                                                                                                                                ",
"                                                                                                                                                                                                                                                                ",
"                                                                                                                                                                                                                                                                ",
"                                                                                                                                                                                                                                                                ",
"                                                                                                                                                                                                                                                                ",
"                                                                                                                                                                                                                                                                ",
"                                                                                                                                                                                                                                                                ",
"                                                                                                                                                                                                                                                                ",
"                                                                                                                                                                                                                                                                ",
"                                                                                                                                                                                                                                                                ",
"                                                                                                                                                                                                                                                                ",
"                                                                                                                                                                                                                                                                ",
"                                                                                                                                                                                                                                                                ",
"                                                                                                                                                                                                                                                                ",
"                                                                                                                                                                                                                                                                ",
"                                                                                                                                                                                                                                                                "};
