/* XPM */
static const char * IconL1Inactif_xpm[] = {
"128 64 102 2",
"  	c #8187AB",
". 	c #8187A9",
"+ 	c #8387AA",
"@ 	c #8186AC",
"# 	c #8287AD",
"$ 	c #8185A8",
"% 	c #8288AC",
"& 	c #8186AE",
"* 	c #8086A8",
"= 	c #8286AC",
"- 	c #7F87AC",
"; 	c #8088AC",
"> 	c #8086AA",
", 	c #8288AA",
"' 	c #8286A9",
") 	c #7F87AB",
"! 	c #8085AB",
"~ 	c #8187A7",
"{ 	c #8286AB",
"] 	c #8288A8",
"^ 	c #7F88A9",
"/ 	c #8387AC",
"( 	c #8088AD",
"_ 	c #60617D",
": 	c #20242D",
"< 	c #2A2E39",
"[ 	c #717493",
"} 	c #8089A8",
"| 	c #8185AA",
"1 	c #585A73",
"2 	c #45475C",
"3 	c #777D9D",
"4 	c #787EA0",
"5 	c #09090B",
"6 	c #000100",
"7 	c #000002",
"8 	c #24242C",
"9 	c #61637C",
"0 	c #21252E",
"a 	c #5E6381",
"b 	c #010000",
"c 	c #000000",
"d 	c #000004",
"e 	c #787DA3",
"f 	c #080A09",
"g 	c #5F637E",
"h 	c #797DA0",
"i 	c #1A1B20",
"j 	c #030000",
"k 	c #8089AA",
"l 	c #686C89",
"m 	c #171C22",
"n 	c #7A7D9E",
"o 	c #3C3F4E",
"p 	c #010002",
"q 	c #010103",
"r 	c #3D4051",
"s 	c #010101",
"t 	c #080808",
"u 	c #8389AD",
"v 	c #454859",
"w 	c #181B20",
"x 	c #6A6B8A",
"y 	c #444A5A",
"z 	c #070B0C",
"A 	c #46495C",
"B 	c #4D5268",
"C 	c #43485B",
"D 	c #7B7EA1",
"E 	c #020100",
"F 	c #5E627D",
"G 	c #010100",
"H 	c #000201",
"I 	c #60647F",
"J 	c #8287A7",
"K 	c #61627E",
"L 	c #000200",
"M 	c #8389AB",
"N 	c #5E6377",
"O 	c #202430",
"P 	c #21262C",
"Q 	c #22252E",
"R 	c #21242D",
"S 	c #23262F",
"T 	c #2A2D36",
"U 	c #666C8C",
"V 	c #5F6380",
"W 	c #111216",
"X 	c #070B0E",
"Y 	c #121116",
"Z 	c #8185AB",
"` 	c #090A0F",
" .	c #020202",
"..	c #090909",
"+.	c #4E5164",
"@.	c #3D3E50",
"#.	c #464759",
"$.	c #7F88A7",
"%.	c #8189B0",
"&.	c #676C8A",
"*.	c #8387AD",
"=.	c #7E87A8",
"                                                                                                                                                                                                                                                                ",
"                                                                                                                                                                                                                                                                ",
"                                                                                                                                                                                                                                                                ",
"                                                                                                                                                                                                                                                                ",
"                                                                                                                                                                                                                                                                ",
"                                                                                                                                                                                                                                                                ",
"                                                                                                                                                                                                                                                                ",
"                                                                                                                                                                                                                                                                ",
"                                                                                                                                                                                                                                                                ",
"                                                                                                                                                                                                                                                                ",
"                                                                                                                                                                                                                                                                ",
"                                                                                                                                                                                                                                                                ",
"                                                                                                                                                                                                                                                                ",
"                                                                                                                                                                                                                                                                ",
"                                                                                                                                                                                                                                                                ",
"                                                                                                                                                                                                                                                                ",
"                                                                                  . + @ # $ % @                                                         + & .                                                                                                   ",
"                                                                                @ @ * %   . @ #                                                 = - . @   @                                                                                                     ",
"                                                                                    %     ; > ,                                                 ' ) % ! ~ % . {                                                                                                 ",
"                                                                                  % @ .   - %                                                   @ % - ] . ^ > #                                                                                                 ",
"                                                                                . % ' / =   @ .                                                 - / ) { { ( / )                                                                                                 ",
"                                                                                #   _ : < [ # @                                                 } | % 1 2 3 + )                                                                                                 ",
"                                                                                > 4 5 6 7 8   #                                                   ' 9 6 7 0 { #                                                                                                 ",
"                                                                                ' a b b c d , .                                                 = e f c c c                                                                                                     ",
"                                                                                % g c c c c .                                   { ' { % % @     h i 7 j c c ; /                                                                                                 ",
"                                                                                % g c c c c .                                   @ . % > k   { l m c d b c c k =                                                                                                 ",
"                                                                                % g c c c c .                                   % @   # ! n o 6 c p c 6 7 q   /                                                                                                 ",
"                                                                                % g c c c c .                                   '   , h r 6 7 c s t s 7 c 7 .                                                                                                   ",
"                                                                                % g c c c c .                                   { u > v c b b 6 w x 7 6 s b & ,                                                                                                 ",
"                                                                                % g c c c c .                                     . % y 7 c z A { = 7 s c b @ ^                                                                                                 ",
"                                                                                % g c c c c .                                   . @ # { B C D {   . c 7 s c   %                                                                                                 ",
"                                                                                % g c c c c .                                   ) %   . , - @ , @ ) E c c 7 % =                                                                                                 ",
"                                                                                { F G c q c %   %         %   % %       %                           c c c c                                                                                                     ",
"                                                                                  g c c c H   #   % %     %           % % % > %                     c c c c                                                                                                     ",
"                                                                                  F s s c c ] .   %       % % %         > % %                       c c c c                                                                                                     ",
"                                                                                  I b c b 7 @ #             %         %   > % %                     c c c c                                                                                                     ",
"                                                                                J K b c c c   %             %         > %   %                       c c c c                                                                                                     ",
"                                                                                ~ g c 7 c L   @ %   %     %       > %                               c c c c                                                                                                     ",
"                                                                                @ I 7 6 s 7 + =         %   > % . M >                               c c c c                                                                                                     ",
"                                                                                @ N 7 c b b O P Q R Q R Q R S T U .           %                     c c c c                                                                                                     ",
"                                                                                % V 6 b p c c 7 c c c c c c c c W = u { % ^                     @ ; c c c c )                                                                                                   ",
"                                                                                  [ 7 c G G c 7 c c c c c c c s X . . { @ @ #                   % > d c c Y %                                                                                                   ",
"                                                                                  Z v ` c 7 b b c c c c c c  ...+.% ; % > %   %                     @.6 H #.% ,                                                                                                 ",
"                                                                                $.@     > %.)   %       %   >   + @ (   , %                       % { &.&.*.  %                                                                                                 ",
"                                                                                  % ' J ,   ' =     %       % %   , @ @       *                   % =.%   )                                                                                                     ",
"                                                                                { { { %   @   . %             % ; .   . { % @ ,                 , @ % ' ' @ @ .                                                                                                 ",
"                                                                                ( ^ k ! # . % #     %     % %   ( / % =.+ , @ .                 @ . @ *.= # ,                                                                                                   ",
"                                                                                . % > %   , @ %               % ; { @ ; &   & ,                 {   .   %     {                                                                                                 ",
"                                                                                                                                                                                                                                                                ",
"                                                                                                                                                                                                                                                                ",
"                                                                                                                                                                                                                                                                ",
"                                                                                                                                                                                                                                                                ",
"                                                                                                                                                                                                                                                                ",
"                                                                                                                                                                                                                                                                ",
"                                                                                                                                                                                                                                                                ",
"                                                                                                                                                                                                                                                                ",
"                                                                                                                                                                                                                                                                ",
"                                                                                                                                                                                                                                                                ",
"                                                                                                                                                                                                                                                                ",
"                                                                                                                                                                                                                                                                ",
"                                                                                                                                                                                                                                                                ",
"                                                                                                                                                                                                                                                                ",
"                                                                                                                                                                                                                                                                ",
"                                                                                                                                                                                                                                                                "};
