/* XPM */
static const char * IconC1Actif_xpm[] = {
"128 64 177 2",
"  	c #81FF81",
". 	c #81FF82",
"+ 	c #82FF82",
"@ 	c #7FFF81",
"# 	c #82FF81",
"$ 	c #82FE82",
"% 	c #7FFF7F",
"& 	c #81FF7F",
"* 	c #82FF80",
"= 	c #82FF7F",
"- 	c #82FD80",
"; 	c #83FF83",
"> 	c #7FFF82",
", 	c #81FE80",
"' 	c #81FF7D",
") 	c #82FF83",
"! 	c #81FD81",
"~ 	c #80FF83",
"{ 	c #80FE80",
"] 	c #83FF80",
"^ 	c #82FE84",
"/ 	c #80FE81",
"( 	c #83FE82",
"_ 	c #83FE7F",
": 	c #7EFF81",
"< 	c #7FFF7D",
"[ 	c #82FD81",
"} 	c #82FF7D",
"| 	c #80FF82",
"1 	c #70DD72",
"2 	c #448A44",
"3 	c #356535",
"4 	c #224423",
"5 	c #224622",
"6 	c #2A552A",
"7 	c #458845",
"8 	c #66CA68",
"9 	c #81FD83",
"0 	c #82FF85",
"a 	c #55A953",
"b 	c #458843",
"c 	c #79EE79",
"d 	c #5EBC5E",
"e 	c #244321",
"f 	c #000000",
"g 	c #000103",
"h 	c #010002",
"i 	c #010000",
"j 	c #000200",
"k 	c #132112",
"l 	c #60BB5C",
"m 	c #81FF84",
"n 	c #5DBA61",
"o 	c #020001",
"p 	c #030000",
"q 	c #224421",
"r 	c #000100",
"s 	c #010004",
"t 	c #000002",
"u 	c #010100",
"v 	c #3B763C",
"w 	c #79EE7B",
"x 	c #0B1009",
"y 	c #010101",
"z 	c #7EFF80",
"A 	c #468743",
"B 	c #040000",
"C 	c #081209",
"D 	c #244323",
"E 	c #234723",
"F 	c #0F220F",
"G 	c #356732",
"H 	c #7EFF7E",
"I 	c #1C3319",
"J 	c #071109",
"K 	c #4D9A4C",
"L 	c #102212",
"M 	c #60BA60",
"N 	c #80FE83",
"O 	c #80FF80",
"P 	c #7EFE83",
"Q 	c #67CB69",
"R 	c #193318",
"S 	c #214521",
"T 	c #020003",
"U 	c #0A0F08",
"V 	c #68CC6A",
"W 	c #78ED78",
"X 	c #112313",
"Y 	c #2D5729",
"Z 	c #7EFF7F",
"` 	c #83FD84",
" .	c #7AEC7A",
"..	c #3B783D",
"+.	c #83FF82",
"@.	c #67CB68",
"#.	c #010103",
"$.	c #4D994E",
"%.	c #5CBB61",
"&.	c #030002",
"*.	c #78ED7A",
"=.	c #3A773E",
"-.	c #07120A",
";.	c #397A3A",
">.	c #12200F",
",.	c #83FE81",
"'.	c #2C552B",
").	c #214722",
"!.	c #83FF85",
"~.	c #458841",
"{.	c #020100",
"].	c #1B331D",
"^.	c #68CD67",
"/.	c #254224",
"(.	c #000004",
"_.	c #3C783C",
":.	c #75EE7A",
"<.	c #468944",
"[.	c #7AED78",
"}.	c #80FF7E",
"|.	c #468745",
"1.	c #071106",
"2.	c #50984E",
"3.	c #7EFF82",
"4.	c #4C9A4E",
"5.	c #77EE76",
"6.	c #000201",
"7.	c #5FB95F",
"8.	c #61BA5E",
"9.	c #1C311E",
"0.	c #336532",
"a.	c #2B552D",
"b.	c #67CE65",
"c.	c #366636",
"d.	c #326733",
"e.	c #122011",
"f.	c #4A9C48",
"g.	c #091009",
"h.	c #79EC77",
"i.	c #7AEC7B",
"j.	c #82FD7E",
"k.	c #3B773B",
"l.	c #1B3319",
"m.	c #498744",
"n.	c #4C984D",
"o.	c #448742",
"p.	c #77EE7A",
"q.	c #1A3419",
"r.	c #438943",
"s.	c #60BB5E",
"t.	c #488645",
"u.	c #64CD64",
"v.	c #0B1107",
"w.	c #0A1109",
"x.	c #66CD62",
"y.	c #83FD86",
"z.	c #84FF82",
"A.	c #67CB6B",
"B.	c #1A341B",
"C.	c #000203",
"D.	c #71DD6E",
"E.	c #112114",
"F.	c #4D9B50",
"G.	c #204322",
"H.	c #1A321A",
"I.	c #4C984E",
"J.	c #3C763B",
"K.	c #478846",
"L.	c #68CC69",
"M.	c #5EBB60",
"N.	c #67CD67",
"O.	c #7FFF84",
"P.	c #7FFD80",
"Q.	c #86FE82",
"R.	c #81FE7E",
"S.	c #7DFF80",
"T.	c #82FE86",
"                                                                                                                                                                                                                                                                ",
"                                                                                                                                                                                                                                                                ",
"                                                                                                                                                                                                                                                                ",
"                                                                                                                                                                                                                                                                ",
"                                                                                                                                                                                                                                                                ",
"                                                                                                                                                                                                                                                                ",
"                                                                                                                                                                                                                                                                ",
"                                                                                                                                                                                                                                                                ",
"                                                                                                                                                                                                                                                                ",
"                                                                                                                                                                                                                                                                ",
"                                                                                                                                                                                                                                                                ",
"                                                                                                                                                                                                                                                                ",
"                                                                                                                                                                                                                                                                ",
"                                                                                                                                                                                                                                                                ",
"                                                                                                                                                                                                                                                                ",
"                                                                                                                                                                                                                                                                ",
"                                                                                . + @ # # . . . # . $ % & # * @                                 $ & . # % =   #                                                                                                 ",
"                                                                                # # - ; > . , ' #     , . ) ! $                                 & .   . $ ~ . .                                                                                                 ",
"                                                                                . > $ . @ & % {     { ] ^ / + =                                 , #   & $ $ $ =                                                                                                 ",
"                                                                                @ # $ >   ( ^ $ _ ^ @ $ &   ! @                                   > (     / # %                                                                                                 ",
"                                                                                $ # %   ,   { : . : ; < [ .   $                                 . # $ % } + > /                                                                                                 ",
"                                                                                $   ) # | 1 2 3 4 5 6 7 8   {                                   . 9 . / 0 a b c                                                                                                 ",
"                                                                                #   . d e f g f f f h i j k l m                                 & , @ ' n o p q                                                                                                 ",
"                                                                                ! @ 7 r i j s f f r i t r u f v                                 & m { w x j y r                                                                                                 ",
"                                                                . $   z ^ &   $ . A f B r f f C D E F f t f i t G . & $   $ +   #     $   @ ) { H   c I t i i f                                                                                                 ",
"                                                                  $ { + $     z d i i f r J K . > , ) l L i h t t M { & N O = . P # & ) #   /   ( Q R f f f r h                                                                                                 ",
"                                                                  $     ) !   ^ S T r t U V . _ , ; $ $ W X r i f Y . # | $   @ _ * . Z & ` %  ...i t j t f h r                                                                                                 ",
"                                                                { #   +.{ / +.@.#.i #.f $._ .   z   % +.+ %.p r u &.) , $   ) , .   $ @ # *.=.f i u f -.y i r f                                                                                                 ",
"                                                                +     ;   ) , ;.f f #.>.@ ,.. . $ = ) / & > '.f f ).@ & !.z     & . . $ = ~.f r f {.].^.f T f i                                                                                                 ",
"                                                                    + . #   $ /.(.r &._.@ H . , .   { | # . :.7 <.[./     !.:   z + }.. + |.r h 1.7 $   f i r #.                                                                                                ",
"                                                                  . { . + {   C t j t 2.! # { >   & 3.,.} ,.  & &   )   # . > ( ,.}.= = > . 4.7 5.] - | i t 6.r                                                                                                 ",
"                                                                = : # { { $   r i r t d     # , # ! . . .   {   /   . # # { %   . . % (   . . # # / ; z y t h f                                                                                                 ",
"                                                                . &   > # $ @ y t f r 7.; ( % #   . m   #     : # . # > = $ / )                         f f f f                                                                                                 ",
"                                                                    { ~       f i h y 8.> %   m $ ~   +.. % ^ =     .     @ $ _                         f f f f                                                                                                 ",
"                                                                #   ; ! = @ > 9.i y t 7 @ ; ! @ &   , @ # $ W 0.a.b./ 9 ( . & &                         f f f f                                                                                                 ",
"                                                                #   . . *     c.r i i c.% 9   , m + . ,.N   d.f t e.+.# . >                             f f f f                                                                                                 ",
"                                                                  + $   # ;   f.t h o g.= @ # # }.+.> / ; h.i r r i   $ % $   $                         f f f f                                                                                                 ",
"                                                                  { +.# $ ! O i.C r r f <.  / @ ; j.    & k.t i t l.= > (   +.,                         f f f f                                                                                                 ",
"                                                                  @ . z   . # ,.m.i f f r n.` . : . @ ^ o.6.t i y 2.. > $ = { )                         f f f f                                                                                                 ",
"                                                                = + $ =   @ . % p.q.f f f r 4 r.s.M t.4 r i f r R   $ > # . ; &                         f f f f                                                                                                 ",
"                                                                                $ u.v.f t t r i f f i #.r p r w.x.y.: & z./ > #                 #   . # i f t r                                                                                                 ",
"                                                                                  > A.B.i C.f t f f t f h g l.D.y.) }.# , + @ ,                 ^ @ ^ > j i o E.                                                                                                ",
"                                                                                [ = ,.& F.G.f f f h r i H.I.|   : }.# $ .     +                 % = ! }.J.{.t K.                                                                                                ",
"                                                                                  :   ;   *   L.M.d M.$ & # & # & # $ / )   + .                 $ ,   + , @.N.&                                                                                                 ",
"                                                                                & $ @ / +.#   . , #   ) . ! @ # z., . ~       .                 . . ; { . ~ . #                                                                                                 ",
"                                                                                &   . $ & ) }.. O.{ +.P.~   z . / +       & { $                 @ }., = $   $                                                                                                   ",
"                                                                                = + , ~ . ; ( @ } ; N *   . Q.  > |       { + #                 . + R.@ [   * >                                                                                                 ",
"                                                                                ) O.+., * m &   S.T.  { ,.= > # # , + . . $ #                   . $ + > * . , #                                                                                                 ",
"                                                                                                                                                                                                                                                                ",
"                                                                                                                                                                                                                                                                ",
"                                                                                                                                                                                                                                                                ",
"                                                                                                                                                                                                                                                                ",
"                                                                                                                                                                                                                                                                ",
"                                                                                                                                                                                                                                                                ",
"                                                                                                                                                                                                                                                                ",
"                                                                                                                                                                                                                                                                ",
"                                                                                                                                                                                                                                                                ",
"                                                                                                                                                                                                                                                                ",
"                                                                                                                                                                                                                                                                ",
"                                                                                                                                                                                                                                                                ",
"                                                                                                                                                                                                                                                                ",
"                                                                                                                                                                                                                                                                ",
"                                                                                                                                                                                                                                                                ",
"                                                                                                                                                                                                                                                                "};
