/* XPM */
static const char * IconC2Inactif_xpm[] = {
"128 64 197 2",
"  	c #8187AB",
". 	c #8288AC",
"+ 	c #8085AB",
"@ 	c #8186AC",
"# 	c #8187A9",
"$ 	c #7F87AB",
"% 	c #8387AC",
"& 	c #8287AD",
"* 	c #8288AA",
"= 	c #8185AB",
"- 	c #8286A9",
"; 	c #8286AB",
"> 	c #8287AF",
", 	c #8086AA",
"' 	c #8286AC",
") 	c #8086A8",
"! 	c #8285AE",
"~ 	c #8189AE",
"{ 	c #8186AE",
"] 	c #8185AA",
"^ 	c #7F87AC",
"/ 	c #8089AA",
"( 	c #727596",
"_ 	c #45475C",
": 	c #343643",
"< 	c #21232F",
"[ 	c #22252E",
"} 	c #2A2C38",
"| 	c #46485D",
"1 	c #6A6B89",
"2 	c #8487AA",
"3 	c #8387AD",
"4 	c #7A7EA1",
"5 	c #555972",
"6 	c #43485B",
"7 	c #565A73",
"8 	c #717495",
"9 	c #8088AD",
"0 	c #7F88A9",
"a 	c #5F637C",
"b 	c #20252B",
"c 	c #000002",
"d 	c #010103",
"e 	c #010000",
"f 	c #010101",
"g 	c #000100",
"h 	c #0E1317",
"i 	c #5F647A",
"j 	c #8187A7",
"k 	c #8488AE",
"l 	c #7A7DA0",
"m 	c #363642",
"n 	c #000004",
"o 	c #010100",
"p 	c #000000",
"q 	c #2B2D39",
"r 	c #717493",
"s 	c #8188A5",
"t 	c #45485B",
"u 	c #000201",
"v 	c #010002",
"w 	c #3D3F4C",
"x 	c #8386AF",
"y 	c #686C87",
"z 	c #060C0C",
"A 	c #060A0D",
"B 	c #686C85",
"C 	c #8287A7",
"D 	c #090B0A",
"E 	c #222431",
"F 	c #21252E",
"G 	c #0F1316",
"H 	c #343645",
"I 	c #191C21",
"J 	c #09090B",
"K 	c #353444",
"L 	c #46495C",
"M 	c #333743",
"N 	c #111216",
"O 	c #8288A8",
"P 	c #05090A",
"Q 	c #4F5168",
"R 	c #8385AC",
"S 	c #020005",
"T 	c #5F637E",
"U 	c #4D5268",
"V 	c #191C23",
"W 	c #797DA0",
"X 	c #696D8A",
"Y 	c #08090B",
"Z 	c #000105",
"` 	c #4B5064",
" .	c #24242E",
"..	c #696C8D",
"+.	c #000200",
"@.	c #2B2E37",
"#.	c #292D38",
"$.	c #020100",
"%.	c #5E627D",
"&.	c #47485D",
"*.	c #676C89",
"=.	c #4E5164",
"-.	c #23232D",
";.	c #3C3F52",
">.	c #101415",
",.	c #8487A8",
"'.	c #8088AF",
").	c #3B3E4D",
"!.	c #545A70",
"~.	c #21242D",
"{.	c #3A3D50",
"].	c #8389A9",
"^.	c #7A7EA3",
"/.	c #444758",
"(.	c #7A7F9F",
"_.	c #61627E",
":.	c #8088AC",
"<.	c #7F87AE",
"[.	c #08090D",
"}.	c #4E5067",
"|.	c #7E86AA",
"1.	c #8389AD",
"2.	c #8387AA",
"3.	c #585A73",
"4.	c #787D9D",
"5.	c #7F89AC",
"6.	c #676D87",
"7.	c #09080D",
"8.	c #464759",
"9.	c #5E627B",
"0.	c #7E88AB",
"a.	c #8486AC",
"b.	c #454859",
"c.	c #333645",
"d.	c #8386A9",
"e.	c #8389AB",
"f.	c #787C9F",
"g.	c #313747",
"h.	c #7E87A8",
"i.	c #1B1C21",
"j.	c #44495F",
"k.	c #797DA2",
"l.	c #292C3B",
"m.	c #777D9D",
"n.	c #1B1B23",
"o.	c #42475A",
"p.	c #8086A6",
"q.	c #323642",
"r.	c #8388AE",
"s.	c #333647",
"t.	c #121318",
"u.	c #787EA0",
"v.	c #5F6380",
"w.	c #090A0C",
"x.	c #7B7E9D",
"y.	c #797E9E",
"z.	c #1A1A22",
"A.	c #1B1A22",
"B.	c #696C8B",
"C.	c #797E9C",
"D.	c #090909",
"E.	c #3D3E50",
"F.	c #8388B0",
"G.	c #7B7DA3",
"H.	c #181D23",
"I.	c #020001",
"J.	c #797F9F",
"K.	c #4C506B",
"L.	c #8385AB",
"M.	c #4D5266",
"N.	c #797DA3",
"O.	c #8085AD",
"P.	c #767FA0",
"Q.	c #1A1B1F",
"R.	c #24242C",
"S.	c #5E647E",
"T.	c #44495C",
"U.	c #434959",
"V.	c #030000",
"W.	c #2A2C39",
"X.	c #46495A",
"Y.	c #717694",
"Z.	c #010005",
"`.	c #666C8C",
" +	c #181C1F",
".+	c #686C89",
"++	c #171C22",
"@+	c #8388A8",
"#+	c #4C5167",
"$+	c #222430",
"%+	c #6A6B8A",
"&+	c #111217",
"*+	c #3E404F",
"=+	c #676B88",
"-+	c #60617D",
";+	c #8186A6",
">+	c #7F88AF",
"                                                                                                                                                                                                                                                                ",
"                                                                                                                                                                                                                                                                ",
"                                                                                                                                                                                                                                                                ",
"                                                                                                                                                                                                                                                                ",
"                                                                                                                                                                                                                                                                ",
"                                                                                                                                                                                                                                                                ",
"                                                                                                                                                                                                                                                                ",
"                                                                                                                                                                                                                                                                ",
"                                                                                                                                                                                                                                                                ",
"                                                                                                                                                                                                                                                                ",
"                                                                                                                                                                                                                                                                ",
"                                                                                                                                                                                                                                                                ",
"                                                                                                                                                                                                                                                                ",
"                                                                                                                                                                                                                                                                ",
"                                                                                                                                                                                                                                                                ",
"                                                                                                                                                                                                                                                                ",
"                                                                                .       . + @     #     @   . $                 % & @ .   .       . .   . .   @ * #     @   # .                                                                                 ",
"                                                                                =   *     . . # @ . # # - ; ;                       # * .   #   @ . & >   , .     & @ # .   .                                                                                   ",
"                                                                                & +   *     ; ' #   @ .   . # *                 . + &   +   *   * , & + @ # # & &   % % ) . + .                                                                                 ",
"                                                                                  # . ! . #   # #   ~ + & @ & $                 . & . # . &   { @ * # . @ & @   .     # .   . #                                                                                 ",
"                                                                                - %   .       {       # - ] .                     . ) * @ ^ / # ^     .   #   . @ # . @   # .                                                                                   ",
"                                                                                * @ &   @ ( _ : < [ } | 1 2 ;                     . . @ ^ / #   3 4 5 6 6 6 7 8 - ; @ 9 &     @                                                                                 ",
"                                                                                0   @ a b c d e e e f c g h i !                 . # .   j , k l m n o p f c d g q r - s @ & # &                                                                                 ",
"                                                                                  - t c e e c c u p p v e p n w                 $ . @   # x y z g g p p p p p p p A B {   * .                                                                                   ",
"                                                                @ .   @ . # C & $ _ p p p e c D E F G n e o p p H ;   $ * ; @ @ % # . %   ' I c p e J K L M p p p d N . ; & O {                                                                                 ",
"                                                                .   . . ,   . @ a c e p u P Q R ; % % a N e S p u T @ * + % * . @ 0       U g o p V W   ;   X Y f p Z ` 3     *                                                                                 ",
"                                                                    ,   & @ @ *  .p e p A ..  0   #   & W G p +.e @.%   >   .   ^   .   @ #.$.e e %.$ 0 @ @   &.g p p q , . . #                                                                                 ",
"                                                                  %       @ @ *.p o p c =.;   & $ ' 3     T g v v u ;     ^     .   - . @ [ e c N @ #   # % - a u e d -.$   # @                                                                                 ",
"                                                                . ;   * % .   ;.f g g >.,.  @ ; $ # . , .   q e g < & O # '.%   . % ;   # ).g g 5 9 & ; *   @ !.g f c -.$ # . @                                                                                 ",
"                                                                . % @ # ; , . ~.c f g {.' * ) # ; * $ ].@ . ^./.t (.  #   . . # .     & 9 ; _.*.- :.  . @ <.#  .p c p _ @ #   *                                                                                 ",
"                                                                . ; ^ . ; $ # [.c e p }..   &   -   &   * * |.:.! @   & 1.) ^ . + 9   # # @ -   ; ' . ; 2.  3.e c p Y 4.                                                                                        ",
"                                                                # - ^ $ ; :.  p g e c T #   -   5.@ - @     . $   0 @   # 2.9   2.$ @ 3   . @ * :.    # . 6.7.p p p 8.$ . { @ .                                                                                 ",
"                                                                # . @ / % .   p p c g 9.-   0.a.# ; ; &   3 ;   2.0.. - * 2.& .   # @ . @ @ ) @   @ & # b.f e p g c.- @ #     #                                                                                 ",
"                                                                  . + / ; , . g p p p T   , 9   &   &   . j   ; d.& + .     @ # # @ . @ * . . @   e.f.H p e c c g.- . 0 @     .                                                                                 ",
"                                                                  @ & h.  * ) i.f p e j.. ' # j # * j C   . k.c.l.B   @ . $   # #   & . @ . @ # & m.n.p c u p o.; p.$ 9   * ' @                                                                                 ",
"                                                                  @   $     . M c p c q.* @ x @   @   r.@ ; s.p g t.#   ; :.  .   & ) &     &   u.n.p f g J v.3 ! . {     @ . *                                                                                 ",
"                                                                . . , . &     U p p c w.- . , :.    @ / @ x.g e f c # * ; $ . ; $ { . ) *   - y.z.c e u A.B.. - j >   * .   , *                                                                                 ",
"                                                                  . 2.  @ ; @ C.D.c p p t   $ $ :.# & ^ * E.c e c V 3   @     ; @ #   F., # G.H.I.c u z.J.{ @ :.$ |.. @ )   &                                                                                   ",
"                                                                . @ -   9 %     _ p o e u K.L.  @ * - L.| g n p p M.@ .   - *     # @   & N.V p g p i.C.{ # 2.@     @   1.O.. #                                                                                 ",
"                                                                  @ - . $ ;   @ P.Q.p p e g R.t T S.T. .e e c g n.@ # * $ '       &     . U.g V.e d W.L T._ t t t X.6 Y.  *   @                                                                                 ",
"                                                                                @ y A p e e p g c p c p p e Z.D.`.#           .   - @ $ x  +p p p p p p p p p p p p p Y ;   C .                                                                                 ",
"                                                                                @ - .+I g c f e g p e I.p g ++r # e.,           $   . 0 - V v e p p p p p p p p p c o c @+& @ ^                                                                                 ",
"                                                                                  * # % #+$+g f c g g c V #+% $   , .           '.# .   3 %+&++.p p p p p p p p p p n *+' @ * :.                                                                                ",
"                                                                                # .   <.@ # 3 =+-+9.v.2.% , .         , .   .   # 1.@ :.  ' C 3                   & - - r.@ # %                                                                                 ",
"                                                                                  # &   0 :.^ :.@   j 0 @ . )         .   , . . .   * * $ . . $                 # % % @   . * ;                                                                                 ",
"                                                                                & .     ;+  * @   #   3 % # . $         , . .   &   @ . @   , &                 >+$ / ^ & . # '                                                                                 ",
"                                                                                        x ; ; ;       ; ; %   ^       . . . , . # & # % ' # > ; . . . . . . . . ; a.; * ;   $                                                                                   ",
"                                                                                # &   #   . #   ;     ^ & * - ; .       .       *   @   # $ $ /                 $   @ ^ @ O 0                                                                                   ",
"                                                                                                                                                                                                                                                                ",
"                                                                                                                                                                                                                                                                ",
"                                                                                                                                                                                                                                                                ",
"                                                                                                                                                                                                                                                                ",
"                                                                                                                                                                                                                                                                ",
"                                                                                                                                                                                                                                                                ",
"                                                                                                                                                                                                                                                                ",
"                                                                                                                                                                                                                                                                ",
"                                                                                                                                                                                                                                                                ",
"                                                                                                                                                                                                                                                                ",
"                                                                                                                                                                                                                                                                ",
"                                                                                                                                                                                                                                                                ",
"                                                                                                                                                                                                                                                                ",
"                                                                                                                                                                                                                                                                ",
"                                                                                                                                                                                                                                                                ",
"                                                                                                                                                                                                                                                                "};
