/* XPM */
static const char * IconL2Actif_xpm[] = {
"128 64 163 2",
"  	c #81FF81",
". 	c #80FE80",
"+ 	c #82FF81",
"@ 	c #82FE82",
"# 	c #83FF85",
"$ 	c #81FE80",
"% 	c #81FF82",
"& 	c #81FF7F",
"* 	c #7FFF82",
"= 	c #7FFF81",
"- 	c #82FF82",
"; 	c #81FF84",
"> 	c #81FF7D",
", 	c #83FF82",
"' 	c #82FD80",
") 	c #7EFF81",
"! 	c #7FFF7F",
"~ 	c #81FD81",
"{ 	c #83FF80",
"] 	c #80FF82",
"^ 	c #80FF7E",
"/ 	c #83FF83",
"( 	c #82FF7F",
"_ 	c #7EFF80",
": 	c #80FE81",
"< 	c #82FE84",
"[ 	c #83FE7F",
"} 	c #83FE81",
"| 	c #82FF85",
"1 	c #84FF82",
"2 	c #80FF83",
"3 	c #80FE83",
"4 	c #82FF80",
"5 	c #7FFF83",
"6 	c #82FF83",
"7 	c #5DBA5F",
"8 	c #234522",
"9 	c #2B562B",
"0 	c #70DE6E",
"a 	c #83FE82",
"b 	c #82FF7D",
"c 	c #75EF78",
"d 	c #57AB56",
"e 	c #438845",
"f 	c #478848",
"g 	c #448A44",
"h 	c #57A957",
"i 	c #72DE71",
"j 	c #79EF77",
"k 	c #081209",
"l 	c #000100",
"m 	c #000000",
"n 	c #20441E",
"o 	c #78ED7A",
"p 	c #346635",
"q 	c #000002",
"r 	c #010000",
"s 	c #030000",
"t 	c #2B542A",
"u 	c #71DC72",
"v 	c #83FD86",
"w 	c #5DBC60",
"x 	c #010002",
"y 	c #67CC66",
"z 	c #0A110A",
"A 	c #000200",
"B 	c #020001",
"C 	c #0A100C",
"D 	c #66CD62",
"E 	c #60BA60",
"F 	c #173418",
"G 	c #040000",
"H 	c #326733",
"I 	c #458843",
"J 	c #346633",
"K 	c #112210",
"L 	c #4F984F",
"M 	c #010103",
"N 	c #000004",
"O 	c #1A331D",
"P 	c #65CB65",
"Q 	c #0B100A",
"R 	c #4D9A4C",
"S 	c #7DFE80",
"T 	c #29562B",
"U 	c #010101",
"V 	c #5FB95F",
"W 	c #468745",
"X 	c #2C552B",
"Y 	c #84FF80",
"Z 	c #234222",
"` 	c #112212",
" .	c #7FFF7D",
"..	c #040005",
"+.	c #21431E",
"@.	c #3B793A",
"#.	c #56AC55",
"$.	c #81FE7E",
"%.	c #53AB55",
"&.	c #020003",
"*.	c #214521",
"=.	c #82FF7E",
"-.	c #5EBA63",
";.	c #67CD69",
">.	c #040001",
",.	c #56A957",
"'.	c #010200",
").	c #091008",
"!.	c #79EE7B",
"~.	c #81FD83",
"{.	c #468946",
"].	c #010100",
"^.	c #458845",
"/.	c #5EBC5E",
"(.	c #78ED78",
"_.	c #326731",
":.	c #77EC77",
"<.	c #1A3419",
"[.	c #5FBC61",
"}.	c #000201",
"|.	c #73F176",
"1.	c #1C321B",
"2.	c #61BA5E",
"3.	c #80FF80",
"4.	c #78EF7B",
"5.	c #1A341B",
"6.	c #60B95F",
"7.	c #18341D",
"8.	c #010004",
"9.	c #7DFF81",
"0.	c #60BB5E",
"a.	c #1B331D",
"b.	c #77EE78",
"c.	c #61BA5C",
"d.	c #214424",
"e.	c #224421",
"f.	c #224423",
"g.	c #234524",
"h.	c #204420",
"i.	c #2E542D",
"j.	c #2A542C",
"k.	c #448A42",
"l.	c #458747",
"m.	c #468944",
"n.	c #458644",
"o.	c #83FD84",
"p.	c #1B3218",
"q.	c #08120A",
"r.	c #0A1109",
"s.	c #428744",
"t.	c #08140A",
"u.	c #020202",
"v.	c #0D0F0E",
"w.	c #4C984E",
"x.	c #7FFF80",
"y.	c #82FC83",
"z.	c #66CC69",
"A.	c #11220F",
"B.	c #3C783C",
"C.	c #84FE85",
"D.	c #84FF83",
"E.	c #7EFF82",
"F.	c #82FD7E",
"                                                                                                                                                                                                                                                                ",
"                                                                                                                                                                                                                                                                ",
"                                                                                                                                                                                                                                                                ",
"                                                                                                                                                                                                                                                                ",
"                                                                                                                                                                                                                                                                ",
"                                                                                                                                                                                                                                                                ",
"                                                                                                                                                                                                                                                                ",
"                                                                                                                                                                                                                                                                ",
"                                                                                                                                                                                                                                                                ",
"                                                                                                                                                                                                                                                                ",
"                                                                                                                                                                                                                                                                ",
"                                                                                                                                                                                                                                                                ",
"                                                                                                                                                                                                                                                                ",
"                                                                                                                                                                                                                                                                ",
"                                                                                                                                                                                                                                                                ",
"                                                                                                                                                                                                                                                                ",
"                                                                                . + @   # .                                     . + $ % % & @ *     + @ = @ @ = + $ - % % @ +                                                                                   ",
"                                                                                ; + > *   , ' =                                   )   ! ~ & @ ! % ~ , { + $ & = * ]       . - +                                                                                 ",
"                                                                                & @ ^ / % ( % (                                 % +   %   _ ( & (   = =   @ @ @ : -       & . @                                                                                 ",
"                                                                                . / = : @ = & $                                   % + ^ @ = < [ % } + | @ + ^ = 1 $ % 2       %                                                                                 ",
"                                                                                - 3   , ^ % = 4                                 / + . , ~ 5 % & * & & $ - _ = + & + @ : 6   - %                                                                                 ",
"                                                                                ~ / 7 8 9 0 % a                                 _ ]   . & b @ c d e f g h i ! + ) ^ + @ %     -                                                                                 ",
"                                                                                  j k l m n & %                                 4     % < o p m q r s m l m t u v 6 ^ + $ - = $                                                                                 ",
"                                                                                @ w m m x x @                                   + / =   y z A x r q l l r B A C D v ) & 1 : * +                                                                                 ",
"                                                                                  E m m m m %                                   6 . , * F G l l k H I J r q m l K a % & + + | &                                                                                 ",
"                                                                                  E m m m m %                                   $ - $ L M m N O o @ , * P Q r r m R ! % ! 4 S +                                                                                 ",
"                                                                                  E m m m m %                                   + =   T q U s V & & ; _ < W l m l X : ; @ : ( ^                                                                                 ",
"                                                                                  E m m m m %                                   ; . Y Z A l ` @ & 6 . }  .E l r ..+.  % + @ % =                                                                                 ",
"                                                                                  E m m m m %                                   = 6 % @.r M #.( a + 2 $., %.&.m r *.( _ =.~ * @                                                                                 ",
"                                                                                  E m m m m %                                   + % : ^ -.;.% - ] ) < @   *.q >.m e @   : 2 $.@                                                                                 ",
"                                                                                  E m m m m %                                   + @ , + % $.& @ %   ^ @ ,.r '.m ).!.^ @ 2   +                                                                                   ",
"                                                                                  E m m m m %                                   = + = .   _ ; ( ( ~.& y z q m q {.  * % $.@ . @                                                                                 ",
"                                                                                + E l q m ].+ (           .     + $ - % % @ +   % +   % : % = + % = ^.m x m U p @ @         . %                                                                                 ",
"                                                                                % /.U m r m | % % .   .   % % % * ]       . - + + 4   $.  + +   (._.m l U M J   = = .   + %   +                                                                                 ",
"                                                                                4 E m r l A % +   . -   .       : -       & . @ @ . ) 3 [ ~ @ :.<.m U q l W - % @ a % = + + . /                                                                                 ",
"                                                                                : [.m }.m r *     .         @ ~ 1 $ % 2       % : - $ @ & , |.1.l r &.Q 2.3._ + 3.$.  * :   = @                                                                                 ",
"                                                                                - /.M q r l <       .     . : % & + @ : 6   - %   . % @ ^ 4.5.r q U F ;.. = / @ @ , _   / % : +                                                                                 ",
"                                                                                ( 6.A U l U + @ $ + + , $     . ) ^ + @ %     - % <   ^ c 7.8.m r 5.(.)   $ . ( = % % & ^ + @ ]                                                                                 ",
"                                                                                9.0.l l m q   + - % @ @ % - = = v 6 ^ + $ - = $  .4 $ (.a.m B x a.b.% [ = 6 @ & %   $.+ = 4 ( .                                                                                 ",
"                                                                                % c.m m x m d.e.e.8 f.f.g.h.*.i.D v ) & 1 : * + % @   {.m '.q A j.k.^.l.m.n.^.{.g u & + ; _ ( o.                                                                                ",
"                                                                                  E A r r l q m m m m m m m U m K % % 5 %   @   6 + % p.l '.8.m m m m m m m m m l q.@ + % - @                                                                                   ",
"                                                                                @ 0 q x r r q r q q M q q q q q r.: ( @ & ( *   ) (   5.r q m x m m m m m m m m s m 2 $ % = 4 +                                                                                 ",
"                                                                                : } s.t.q s l l m U m m u.m l v.w.x.Y y.2 . @ @ 1 3 % z.A.m q m m m m m m m m m l B.a 6 & % + %                                                                                 ",
"                                                                                & ( - .   _ + 6 - . -   . -     @   % +   = ( @   =   % } , S (                   + $   @ | : =                                                                                 ",
"                                                                                * . 6 & } / + % + + + + , + $   + @ 6 / =   & % & a . & & . 6 =                 [ ; 3.% ( [ @ .                                                                                 ",
"                                                                                = C.. 3 & * $ &     .         . !   , 3 * a .   @ 3 ( % = @ % $.% % % % % % % %   :   _ D.E.+ .                                                                                 ",
"                                                                                  ~     _ < ]     + + , +       + / * & $.}   + 9.6 $ 3.+ % @                   @ @ - & : = @ =                                                                                 ",
"                                                                                @ & : a &   @ %                 =   @ & % ~ *   + F.@ *   +   +                 & % . @   % + @                                                                                 ",
"                                                                                                                                                                                                                                                                ",
"                                                                                                                                                                                                                                                                ",
"                                                                                                                                                                                                                                                                ",
"                                                                                                                                                                                                                                                                ",
"                                                                                                                                                                                                                                                                ",
"                                                                                                                                                                                                                                                                ",
"                                                                                                                                                                                                                                                                ",
"                                                                                                                                                                                                                                                                ",
"                                                                                                                                                                                                                                                                ",
"                                                                                                                                                                                                                                                                ",
"                                                                                                                                                                                                                                                                ",
"                                                                                                                                                                                                                                                                ",
"                                                                                                                                                                                                                                                                ",
"                                                                                                                                                                                                                                                                ",
"                                                                                                                                                                                                                                                                ",
"                                                                                                                                                                                                                                                                "};
