/* XPM */
static const char * IconL1Actif_xpm[] = {
"128 64 114 2",
"  	c #81FF81",
". 	c #80FE80",
"+ 	c #82FF81",
"@ 	c #82FE82",
"# 	c #83FF85",
"$ 	c #7FFF7F",
"% 	c #83FE82",
"& 	c #82FF82",
"* 	c #80FF7E",
"= 	c #81FF84",
"- 	c #81FF7D",
"; 	c #7FFF82",
"> 	c #83FF82",
", 	c #82FD80",
"' 	c #7FFF81",
") 	c #80FE81",
"! 	c #82FF83",
"~ 	c #81FF82",
"{ 	c #81FF7F",
"] 	c #83FF83",
"^ 	c #82FF7F",
"/ 	c #83FE81",
"( 	c #81FE80",
"_ 	c #81FD81",
": 	c #80FE83",
"< 	c #82FF80",
"[ 	c #5DBA5F",
"} 	c #234522",
"| 	c #2B562B",
"1 	c #70DE6E",
"2 	c #56A959",
"3 	c #438845",
"4 	c #79EE7B",
"5 	c #79EF77",
"6 	c #081209",
"7 	c #000100",
"8 	c #000000",
"9 	c #20441E",
"0 	c #5EBC5E",
"a 	c #010000",
"b 	c #23431E",
"c 	c #7EFF80",
"d 	c #5DBC60",
"e 	c #010002",
"f 	c #78ED78",
"g 	c #0A110A",
"h 	c #000002",
"i 	c #60BA60",
"j 	c #84FF83",
"k 	c #84FF82",
"l 	c #75EF78",
"m 	c #1C321B",
"n 	c #010004",
"o 	c #81FD85",
"p 	c #68CC69",
"q 	c #1B331B",
"r 	c #80FF82",
"s 	c #7EFF81",
"t 	c #81FE7E",
"u 	c #78EE76",
"v 	c #3C773D",
"w 	c #010103",
"x 	c #77EE78",
"y 	c #3D7641",
"z 	c #010101",
"A 	c #000201",
"B 	c #0A0F08",
"C 	c #458841",
"D 	c #1B3319",
"E 	c #67CD6A",
"F 	c #000103",
"G 	c #071106",
"H 	c #488645",
"I 	c #83FE7F",
"J 	c #4C9A4E",
"K 	c #478848",
"L 	c #77EE76",
"M 	c #010100",
"N 	c #82FF85",
"O 	c #000200",
"P 	c #5FBC61",
"Q 	c #80FF83",
"R 	c #82FE84",
"S 	c #60B95F",
"T 	c #7DFF81",
"U 	c #60BB5E",
"V 	c #83FD86",
"W 	c #61BA5C",
"X 	c #214424",
"Y 	c #224421",
"Z 	c #224423",
"` 	c #234524",
" .	c #204420",
"..	c #214521",
"+.	c #2E542D",
"@.	c #66CD62",
"#.	c #112210",
"$.	c #7FFF83",
"%.	c #0A1109",
"&.	c #112317",
"*.	c #428744",
"=.	c #08140A",
"-.	c #030000",
";.	c #020202",
">.	c #0D0F0E",
",.	c #4C984E",
"'.	c #7FFF80",
").	c #84FF80",
"!.	c #82FC83",
"~.	c #3D773A",
"{.	c #448946",
"].	c #66CC68",
"^.	c #68CD67",
"/.	c #84FE85",
"                                                                                                                                                                                                                                                                ",
"                                                                                                                                                                                                                                                                ",
"                                                                                                                                                                                                                                                                ",
"                                                                                                                                                                                                                                                                ",
"                                                                                                                                                                                                                                                                ",
"                                                                                                                                                                                                                                                                ",
"                                                                                                                                                                                                                                                                ",
"                                                                                                                                                                                                                                                                ",
"                                                                                                                                                                                                                                                                ",
"                                                                                                                                                                                                                                                                ",
"                                                                                                                                                                                                                                                                ",
"                                                                                                                                                                                                                                                                ",
"                                                                                                                                                                                                                                                                ",
"                                                                                                                                                                                                                                                                ",
"                                                                                                                                                                                                                                                                ",
"                                                                                                                                                                                                                                                                ",
"                                                                                . + @   # .                                                     + $ +   + % & *                                                                                                 ",
"                                                                                = + - ;   > , '                                                 ; ' + ) ! ) ~ ~                                                                                                 ",
"                                                                                { @ * ] ~ ^ ~ ^                                                 / % ~ ~ ^ { ^ @                                                                                                 ",
"                                                                                . ] ' ) @ ' { (                                                 ' * ] ^ @ & ' _                                                                                                 ",
"                                                                                & :   > * ~ ' <                                                 & @ * & @ $   +                                                                                                 ",
"                                                                                _ ] [ } | 1 ~ %                                                 ( ; + 2 3 4 ~ ^                                                                                                 ",
"                                                                                  5 6 7 8 9 { ~                                                 > . 0 a 8 b c @                                                                                                 ",
"                                                                                @ d 8 8 e e @                                                   ; f g 7 h h ^                                                                                                   ",
"                                                                                  i 8 8 8 8 ~                                   = + j c % ' k { l m 8 n 7 8 ; /                                                                                                 ",
"                                                                                  i 8 8 8 8 ~                                     $ ~ & ~ < o p q a 7 h 7 7 r s                                                                                                 ",
"                                                                                  i 8 8 8 8 ~                                   . & . + t u v 8 e 7 w h e e ; +                                                                                                 ",
"                                                                                  i 8 8 8 8 ~                                   + @ ~ x y z 7 a A B 8 z 8 h ( ~                                                                                                 ",
"                                                                                  i 8 8 8 8 ~                                   { ~ ~ C a e 7 8 D E a 8 z a ; {                                                                                                 ",
"                                                                                  i 8 8 8 8 ~                                   ]   + 3 8 F G H ; { h A 7 h ~ I                                                                                                 ",
"                                                                                  i 8 8 8 8 ~                                   @ & @   J K L + + . z a z h + ~                                                                                                 ",
"                                                                                  i 8 8 8 8 ~                                   r   @   @ ^ !   ; > 7 8 a h   ~                                                                                                 ",
"                                                                                + i 7 h 8 M + ^           .     + ( & ~ ~ @ +                       8 8 8 8                                                                                                     ",
"                                                                                ~ 0 z 8 a 8 N ~ ~ .   .   ~ ~ ~ ; r       . & +                     8 8 8 8                                                                                                     ",
"                                                                                < i 8 a 7 O ~ +   . &   .       ) &       { . @                     8 8 8 8                                                                                                     ",
"                                                                                ) P 8 A 8 a ;     .         @ _ k ( ~ Q       ~                     8 8 8 8                                                                                                     ",
"                                                                                & 0 w h a 7 R       .     . ) ~ { + @ ) !   & ~                     8 8 8 8                                                                                                     ",
"                                                                                ^ S O z 7 z + @ ( + + > (     . s * + @ ~     &                     8 8 8 8                                                                                                     ",
"                                                                                T U 7 7 8 h   + & ~ @ @ ~ & ' ' V ! * + ( & ' (                     8 8 8 8                                                                                                     ",
"                                                                                ~ W 8 8 e 8 X Y Y } Z Z `  ...+.@.V s { k ) ; +                     8 8 8 8                                                                                                     ",
"                                                                                  i O a a 7 h 8 8 8 8 8 8 8 z 8 #.~ ~ $.~   @                     ( w h 8 7 I '                                                                                                 ",
"                                                                                @ 1 h e a a h a h h w h h h h h %.) ^ @ { ^ ;                   ; ~ 7 8 a &.+ @                                                                                                 ",
"                                                                                ) / *.=.h -.7 7 8 z 8 8 ;.8 7 >.,.'.).!.Q . @ @                 ~   ~.7 a {.( @                                                                                                 ",
"                                                                                { ^ & .   c + ! & . &   . &     @   ~ +   ' ^ @                 + +   ].^.( > c                                                                                                 ",
"                                                                                ; . ! { / ] + ~ + + + + > + (   + @ ! ] '   { ~                 !   @ ~ ; ~ . ~                                                                                                 ",
"                                                                                ' /.. : { ; ( {     .         . $   > : ; % .                   (   )..   $ . +                                                                                                 ",
"                                                                                  _     c R r     + + > +       + ] ; { t /   +                 ' ; *   /   ~ '                                                                                                 ",
"                                                                                @ { ) % {   @ ~                 '   @ { ~ _ ;                   @ + ' +   !   +                                                                                                 ",
"                                                                                                                                                                                                                                                                ",
"                                                                                                                                                                                                                                                                ",
"                                                                                                                                                                                                                                                                ",
"                                                                                                                                                                                                                                                                ",
"                                                                                                                                                                                                                                                                ",
"                                                                                                                                                                                                                                                                ",
"                                                                                                                                                                                                                                                                ",
"                                                                                                                                                                                                                                                                ",
"                                                                                                                                                                                                                                                                ",
"                                                                                                                                                                                                                                                                ",
"                                                                                                                                                                                                                                                                ",
"                                                                                                                                                                                                                                                                ",
"                                                                                                                                                                                                                                                                ",
"                                                                                                                                                                                                                                                                ",
"                                                                                                                                                                                                                                                                ",
"                                                                                                                                                                                                                                                                "};
