/* XPM */
static const char * IconSupprDerImgL1_xpm[] = {
"64 32 947 2",
"  	c #FEF5CE",
". 	c #FCF3CA",
"+ 	c #FEF2CA",
"@ 	c #FFF2CB",
"# 	c #FFF4CD",
"$ 	c #FFF1CA",
"% 	c #FFF4CC",
"& 	c #FFF7CE",
"* 	c #FFF6CD",
"= 	c #FFF8CF",
"- 	c #FBF2C9",
"; 	c #FDF4CB",
"> 	c #F8EFC6",
", 	c #FEF5CC",
"' 	c #FDF1C9",
") 	c #FFF5CD",
"! 	c #FFF6CC",
"~ 	c #FFF2C9",
"{ 	c #FFF0C7",
"] 	c #FFF3C9",
"^ 	c #FCF0C8",
"/ 	c #FFF8D0",
"( 	c #FFF3CB",
"_ 	c #FFF6CE",
": 	c #FFF7CF",
"< 	c #FFF3CC",
"[ 	c #FFF5CB",
"} 	c #FFF4C7",
"| 	c #FDF2C5",
"1 	c #FFF6C9",
"2 	c #FFF9D1",
"3 	c #FFF2C8",
"4 	c #FFF4CA",
"5 	c #FFF8CD",
"6 	c #FFFBD0",
"7 	c #FFFCD1",
"8 	c #FEF5CA",
"9 	c #FDF0C6",
"0 	c #FBEFC7",
"a 	c #FFF0C5",
"b 	c #FDEEC3",
"c 	c #FDF5D0",
"d 	c #F9F3CF",
"e 	c #FDF7D3",
"f 	c #FEF6D1",
"g 	c #FEEFC4",
"h 	c #FFF1C8",
"i 	c #FAEDC3",
"j 	c #FCEFC5",
"k 	c #FEF1C7",
"l 	c #FFEFC3",
"m 	c #FFF4C6",
"n 	c #FCEEC7",
"o 	c #D4CDB0",
"p 	c #B7B29C",
"q 	c #CDC8B2",
"r 	c #F5EED1",
"s 	c #FFF8D1",
"t 	c #FFF1C3",
"u 	c #FFF8CE",
"v 	c #FFEDBF",
"w 	c #FFF5C3",
"x 	c #F3E5C0",
"y 	c #AAA28F",
"z 	c #67635A",
"A 	c #7A766D",
"B 	c #C3BBA8",
"C 	c #F6E8C3",
"D 	c #FFF2C0",
"E 	c #FFEFC4",
"F 	c #FFF4C9",
"G 	c #EBDCB1",
"H 	c #F0E1B6",
"I 	c #FBECC1",
"J 	c #FEECBE",
"K 	c #FDECB8",
"L 	c #F0E2BF",
"M 	c #A0988B",
"N 	c #423E3F",
"O 	c #393536",
"P 	c #80786B",
"Q 	c #D0C29F",
"R 	c #FFEEC3",
"S 	c #FCEDC2",
"T 	c #E8D9AE",
"U 	c #C2B388",
"V 	c #CFC095",
"W 	c #F9EABF",
"X 	c #FFF2C7",
"Y 	c #FAEBC0",
"Z 	c #FFEABD",
"` 	c #FFF3C2",
" .	c #DACCA9",
"..	c #9F9184",
"+.	c #62575B",
"@.	c #362E39",
"#.	c #353439",
"$.	c #6C6F66",
"%.	c #A6AD9B",
"&.	c #F2E8B7",
"*.	c #FFF5C6",
"=.	c #FFEABE",
"-.	c #FFEDC2",
";.	c #FCE6B7",
">.	c #FFF5C1",
",.	c #FFF6BF",
"'.	c #CEC7BF",
").	c #7F776A",
"!.	c #6D654E",
"~.	c #BAAF8F",
"{.	c #FAECC5",
"].	c #FFF0C4",
"^.	c #FDE8BB",
"/.	c #FFEEBF",
"(.	c #FBEAB4",
"_.	c #FFF1BF",
":.	c #F9E4B5",
"<.	c #FAE6B4",
"[.	c #FFF0BB",
"}.	c #F9E8B2",
"|.	c #FFF1C4",
"1.	c #FFE7C1",
"2.	c #FFF3CA",
"3.	c #F5E4B9",
"4.	c #FFEBC0",
"5.	c #FFEAC0",
"6.	c #FFE6BE",
"7.	c #FFEBC3",
"8.	c #FEE7BD",
"9.	c #FFECBF",
"0.	c #FFE9BA",
"a.	c #FFF5BE",
"b.	c #E3D6A9",
"c.	c #C2B499",
"d.	c #9B9185",
"e.	c #625A58",
"f.	c #2F2B2A",
"g.	c #343432",
"h.	c #5A5C57",
"i.	c #ADA68A",
"j.	c #E5D8B8",
"k.	c #FFECC2",
"l.	c #FFE8B8",
"m.	c #FFECBC",
"n.	c #FEEBC0",
"o.	c #DBCEAB",
"p.	c #A9A383",
"q.	c #6E665B",
"r.	c #655C4B",
"s.	c #867C61",
"t.	c #CDC09E",
"u.	c #FCEDC4",
"v.	c #FFEFC1",
"w.	c #FCE7B8",
"x.	c #FEE8B9",
"y.	c #FEEAB7",
"z.	c #FEE8B7",
"A.	c #FEE6B8",
"B.	c #FFEFBD",
"C.	c #F6E2AD",
"D.	c #FFF8C3",
"E.	c #F4DEAD",
"F.	c #FFEBBF",
"G.	c #F9E6BB",
"H.	c #FFEABB",
"I.	c #FDE7B6",
"J.	c #FFEEBE",
"K.	c #FDE5B9",
"L.	c #FEE6BA",
"M.	c #FDE7B8",
"N.	c #FFF2B6",
"O.	c #F0E1AA",
"P.	c #E2D6A6",
"Q.	c #D4CAA6",
"R.	c #A79F88",
"S.	c #665F55",
"T.	c #3D3737",
"U.	c #383339",
"V.	c #585254",
"W.	c #A3998D",
"X.	c #E7D8B7",
"Y.	c #FEE9BA",
"Z.	c #E2D4AF",
"`.	c #8F8675",
" +	c #4F4A46",
".+	c #524735",
"++	c #8D816B",
"@+	c #D0C3A3",
"#+	c #F4E6BF",
"$+	c #FFEEC2",
"%+	c #FDE8B9",
"&+	c #FBE5B6",
"*+	c #FFE7B8",
"=+	c #FFE6B7",
"-+	c #FFEBB9",
";+	c #F4E0AD",
">+	c #FFECB7",
",+	c #FFEAB5",
"'+	c #FFEAB6",
")+	c #FEE8AE",
"!+	c #FFEEB5",
"~+	c #FBE4B2",
"{+	c #FFE6B9",
"]+	c #FFE8B7",
"^+	c #FEE6B6",
"/+	c #FBE8B0",
"(+	c #FAE7AD",
"_+	c #F6E7AC",
":+	c #F3E6AF",
"<+	c #E6DBAE",
"[+	c #BFB498",
"}+	c #7B7167",
"|+	c #453939",
"1+	c #2B2735",
"2+	c #5A5250",
"3+	c #ACA18B",
"4+	c #E3D5B0",
"5+	c #E6D8B3",
"6+	c #A79D84",
"7+	c #554E48",
"8+	c #454249",
"9+	c #8B7B61",
"0+	c #CBBC9D",
"a+	c #FBEBC7",
"b+	c #FBE6B7",
"c+	c #FBE5B4",
"d+	c #FDE5B5",
"e+	c #FFE8BA",
"f+	c #FFE5B6",
"g+	c #FFE3B1",
"h+	c #FFE4B5",
"i+	c #FEE7BB",
"j+	c #FEE9B4",
"k+	c #FFE5AA",
"l+	c #FFE1AF",
"m+	c #FFEBB2",
"n+	c #FFEDAD",
"o+	c #FCE6AC",
"p+	c #F9E2B0",
"q+	c #FDE3B2",
"r+	c #FFE7B0",
"s+	c #FFE5B4",
"t+	c #FFEBB6",
"u+	c #FDE9AE",
"v+	c #F9EAA9",
"w+	c #FFF2B7",
"x+	c #F9EBBE",
"y+	c #CBBC9F",
"z+	c #968573",
"A+	c #534D51",
"B+	c #433B39",
"C+	c #635B50",
"D+	c #8D8473",
"E+	c #8D8572",
"F+	c #5C5447",
"G+	c #433C36",
"H+	c #736E6B",
"I+	c #DAC6A3",
"J+	c #F3E0B8",
"K+	c #F9E3B2",
"L+	c #FAE5B0",
"M+	c #FFE8B4",
"N+	c #FFE6B5",
"O+	c #FDE5B7",
"P+	c #FFE5B2",
"Q+	c #FFDFAA",
"R+	c #FFE3B6",
"S+	c #FDE9C6",
"T+	c #E8DAB7",
"U+	c #F4E2B2",
"V+	c #FFE8AD",
"W+	c #FFE4AF",
"X+	c #FFE7AB",
"Y+	c #F5DD9F",
"Z+	c #FCE9B1",
"`+	c #FFEEC5",
" @	c #F8E0BC",
".@	c #FDE3A8",
"+@	c #FFE9BE",
"@@	c #FBE2AA",
"#@	c #FCE6AA",
"$@	c #FFEEB1",
"%@	c #FFF0B8",
"&@	c #F3DEB3",
"*@	c #A59A88",
"=@	c #635B4E",
"-@	c #35302C",
";@	c #2E2C2D",
">@	c #31302E",
",@	c #3A362D",
"'@	c #696250",
")@	c #B6AB95",
"!@	c #FFE9BD",
"~@	c #FFEABC",
"{@	c #FFE8B6",
"]@	c #FFE6B0",
"^@	c #FFE7AF",
"/@	c #FDE3B0",
"(@	c #FEE2B2",
"_@	c #F9E5B3",
":@	c #FFE6AF",
"<@	c #FFE1AA",
"[@	c #FFDFB6",
"}@	c #BEAC94",
"|@	c #5C513D",
"1@	c #978964",
"2@	c #FDE6B0",
"3@	c #FFE8B2",
"4@	c #FFE2A8",
"5@	c #FBE6AD",
"6@	c #AF9F86",
"7@	c #8D7961",
"8@	c #FFEABF",
"9@	c #FBE6A7",
"0@	c #FFE2AE",
"a@	c #FEDFB1",
"b@	c #FCDDAE",
"c@	c #FCE0AE",
"d@	c #FFE6B1",
"e@	c #FEE5AD",
"f@	c #F9E0A7",
"g@	c #FCE3AA",
"h@	c #FFECB2",
"i@	c #EAD8B2",
"j@	c #958971",
"k@	c #3F3C37",
"l@	c #252A30",
"m@	c #2E3339",
"n@	c #59564D",
"o@	c #B3A88C",
"p@	c #FFE3B3",
"q@	c #FBE0AB",
"r@	c #FDE2AB",
"s@	c #FFE7AC",
"t@	c #FEE4A9",
"u@	c #FBE0A9",
"v@	c #FDE2AD",
"w@	c #FFE5B5",
"x@	c #FAEAB6",
"y@	c #FEE4A7",
"z@	c #FFE3A7",
"A@	c #FEE1B9",
"B@	c #4F4134",
"C@	c #040000",
"D@	c #0C0200",
"E@	c #F3DEB1",
"F@	c #FFDCA6",
"G@	c #FEE4AB",
"H@	c #FEECBC",
"I@	c #B8AA8F",
"J@	c #261911",
"K@	c #0D0000",
"L@	c #CEBC96",
"M@	c #FBE7A8",
"N@	c #FFE1AD",
"O@	c #FFE2AC",
"P@	c #FFE2B0",
"Q@	c #FFE1B2",
"R@	c #FFE5AE",
"S@	c #FFE8AB",
"T@	c #FFEBAB",
"U@	c #E0C898",
"V@	c #877859",
"W@	c #2B2B23",
"X@	c #1D262D",
"Y@	c #222B32",
"Z@	c #404034",
"`@	c #9F916E",
" #	c #E4CD97",
".#	c #FFEDB9",
"+#	c #FFE3AB",
"@#	c #FFE5A9",
"##	c #FFE2A6",
"$#	c #FFE5B0",
"%#	c #F1E6AE",
"&#	c #FFE6A6",
"*#	c #FFE0A3",
"=#	c #F9DDB6",
"-#	c #443A31",
";#	c #020001",
">#	c #080000",
",#	c #F9E5C0",
"'#	c #FFE1AB",
")#	c #FAE1A9",
"!#	c #BFB085",
"~#	c #413525",
"{#	c #070000",
"]#	c #0F0100",
"^#	c #AEA07D",
"/#	c #F3E4A3",
"(#	c #FFE1A2",
"_#	c #FCE2A7",
":#	c #F6DCA9",
"<#	c #FFDFAC",
"[#	c #FFE3B0",
"}#	c #FAE2B2",
"|#	c #DDCCA0",
"1#	c #707976",
"2#	c #262C2C",
"3#	c #38393B",
"4#	c #3C3A3F",
"5#	c #453F43",
"6#	c #3E3538",
"7#	c #2B2223",
"8#	c #8E8684",
"9#	c #FAEAAE",
"0#	c #FBE3A7",
"a#	c #FFE1A8",
"b#	c #FCDBA5",
"c#	c #FFDFAE",
"d#	c #FDDEAF",
"e#	c #FFDEAB",
"f#	c #FFE0AB",
"g#	c #FFDEAC",
"h#	c #FDE5A9",
"i#	c #443D2D",
"j#	c #000305",
"k#	c #050000",
"l#	c #FCE0B0",
"m#	c #FFE3AF",
"n#	c #FBDDA9",
"o#	c #FFE4B0",
"p#	c #FCDEAA",
"q#	c #FDDFAB",
"r#	c #F9DBA7",
"s#	c #D7D9CE",
"t#	c #847975",
"u#	c #120500",
"v#	c #100C03",
"w#	c #00010C",
"x#	c #010703",
"y#	c #B1A478",
"z#	c #FFE1A9",
"A#	c #FFE3AC",
"B#	c #FFE9B2",
"C#	c #F9DEA7",
"D#	c #FFE4B1",
"E#	c #FFEBBC",
"F#	c #DDC9A4",
"G#	c #8E8363",
"H#	c #343841",
"I#	c #232323",
"J#	c #575445",
"K#	c #9D957E",
"L#	c #9B8F79",
"M#	c #514537",
"N#	c #302424",
"O#	c #675D65",
"P#	c #CEBC8C",
"Q#	c #F9E5B2",
"R#	c #F9E0A8",
"S#	c #FFE2A9",
"T#	c #FFDEA8",
"U#	c #FFDEAE",
"V#	c #FFDFB0",
"W#	c #FFDDAB",
"X#	c #433C2C",
"Y#	c #000205",
"Z#	c #FCDCA9",
"`#	c #FFE2AF",
" $	c #FFE0AD",
".$	c #F5D5A2",
"+$	c #C5A572",
"@$	c #110E00",
"#$	c #0B0000",
"$$	c #1B0900",
"%$	c #504939",
"&$	c #060A15",
"*$	c #000400",
"=$	c #B2A378",
"-$	c #FED79E",
";$	c #FFDFA9",
">$	c #FFE0B1",
",$	c #FDDCA7",
"'$	c #FFE1A5",
")$	c #FFE0A7",
"!$	c #DCC4A2",
"~$	c #8B7F69",
"{$	c #322E22",
"]$	c #16141F",
"^$	c #504941",
"/$	c #AEA17E",
"($	c #ECD8A3",
"_$	c #E5D099",
":$	c #A79370",
"<$	c #604F47",
"[$	c #443741",
"}$	c #887557",
"|$	c #F1DBB6",
"1$	c #FEDBA3",
"2$	c #FFDDAF",
"3$	c #FEDDAA",
"4$	c #FFDCAA",
"5$	c #433C2A",
"6$	c #000204",
"7$	c #FBDAA5",
"8$	c #FFDEA9",
"9$	c #FFE1AC",
"0$	c #F7D6A1",
"a$	c #CAA974",
"b$	c #0B0100",
"c$	c #634E31",
"d$	c #CFB793",
"e$	c #BDB199",
"f$	c #030208",
"g$	c #010000",
"h$	c #C0AD85",
"i$	c #FFDDA6",
"j$	c #FEDDA7",
"k$	c #FFDBB4",
"l$	c #FED9A5",
"m$	c #FFDE9F",
"n$	c #FFE6AA",
"o$	c #E9CEA3",
"p$	c #93836C",
"q$	c #3D3630",
"r$	c #121413",
"s$	c #433A35",
"t$	c #A79881",
"u$	c #F2DAAA",
"v$	c #FFE09F",
"w$	c #FEDD9A",
"x$	c #F4D8A8",
"y$	c #B19D84",
"z$	c #51423B",
"A$	c #534032",
"B$	c #CCB69E",
"C$	c #FCE3BB",
"D$	c #FDDFA9",
"E$	c #FFE1A4",
"F$	c #FFDFA2",
"G$	c #FFDEAA",
"H$	c #FFDBAB",
"I$	c #FFDBA7",
"J$	c #FFDDA7",
"K$	c #FFDAA6",
"L$	c #FBE1A4",
"M$	c #443B2A",
"N$	c #060000",
"O$	c #FCDEAC",
"P$	c #FDDCA6",
"Q$	c #FFE0AA",
"R$	c #FFE4AE",
"S$	c #F7D6A0",
"T$	c #F2E0B0",
"U$	c #F5D8AC",
"V$	c #B29F7E",
"W$	c #030002",
"X$	c #050100",
"Y$	c #C1AB86",
"Z$	c #FED09C",
"`$	c #FFD9B5",
" %	c #F9DFA4",
".%	c #B6A281",
"+%	c #544A40",
"@%	c #211F20",
"#%	c #2C2D2F",
"$%	c #877857",
"%%	c #E5CEA5",
"&%	c #F9D8A5",
"*%	c #FFDDA2",
"=%	c #FFDA9E",
"-%	c #FBD8A2",
";%	c #EDD5A9",
">%	c #93815B",
",%	c #55423B",
"'%	c #87725F",
")%	c #DCC49E",
"!%	c #FFDEA1",
"~%	c #FFE0A4",
"{%	c #FFDAA3",
"]%	c #FED8A7",
"^%	c #FCDFA3",
"/%	c #433A29",
"(%	c #000202",
"_%	c #FDDDAC",
":%	c #FFDDA5",
"<%	c #FDDAA2",
"[%	c #FAD79F",
"}%	c #FFE0A8",
"|%	c #FFDEA6",
"1%	c #FCE3AB",
"2%	c #FAD7A1",
"3%	c #B8A279",
"4%	c #0A0104",
"5%	c #B59E7C",
"6%	c #FFDBA4",
"7%	c #FFDCB3",
"8%	c #FFDCA5",
"9%	c #FDE09E",
"0%	c #D6C08E",
"a%	c #6C604A",
"b%	c #1E1818",
"c%	c #242021",
"d%	c #555148",
"e%	c #B8A16B",
"f%	c #F3D5A1",
"g%	c #FFDAA7",
"h%	c #FFD7A4",
"i%	c #F7D29D",
"j%	c #FBE1A8",
"k%	c #DAC68B",
"l%	c #857566",
"m%	c #513F27",
"n%	c #B39B75",
"o%	c #FFDEA4",
"p%	c #FFDCA1",
"q%	c #FFD9A2",
"r%	c #FFDAA5",
"s%	c #FED6A2",
"t%	c #FBDFA0",
"u%	c #453A28",
"v%	c #FFDBA1",
"w%	c #FEDAA0",
"x%	c #FDD99F",
"y%	c #FBD79D",
"z%	c #F9DAA3",
"A%	c #FED79C",
"B%	c #FFE39F",
"C%	c #B59E72",
"D%	c #040001",
"E%	c #B5A17C",
"F%	c #FFDA9F",
"G%	c #FFDCAC",
"H%	c #FADA9D",
"I%	c #EAD292",
"J%	c #AC9F73",
"K%	c #343025",
"L%	c #040207",
"M%	c #39322C",
"N%	c #877B63",
"O%	c #DCBB85",
"P%	c #F9D6A0",
"Q%	c #FFD8A5",
"R%	c #FFD7A3",
"S%	c #FBDDA1",
"T%	c #FDE3A6",
"U%	c #B7AB91",
"V%	c #5B4C2D",
"W%	c #A58F66",
"X%	c #F6D8A6",
"Y%	c #FFDBA0",
"Z%	c #FED699",
"`%	c #FED9A4",
" &	c #FED9A2",
".&	c #FDD5A1",
"+&	c #FBDD9F",
"@&	c #000102",
"#&	c #FBDBA8",
"$&	c #FFD89F",
"%&	c #FFDBA2",
"&&	c #FFDCA3",
"*&	c #FDD69D",
"=&	c #FFD9A0",
"-&	c #FFDAA1",
";&	c #FBD398",
">&	c #FFDC97",
",&	c #BBA576",
"'&	c #010002",
")&	c #AD9E77",
"!&	c #FFE0A0",
"~&	c #FFD8A1",
"{&	c #FFE4A4",
"]&	c #E7D394",
"^&	c #948C65",
"/&	c #22231E",
"(&	c #100F17",
"_&	c #5E544A",
":&	c #BBA887",
"<&	c #F8D2A3",
"[&	c #FAD39C",
"}&	c #FDD69B",
"|&	c #FFDEA3",
"1&	c #FBD89E",
"2&	c #FEDEA5",
"3&	c #D1C9A5",
"4&	c #867853",
"5&	c #B19C71",
"6&	c #E9CA9B",
"7&	c #FEDBA5",
"8&	c #FFD89B",
"9&	c #FFDA9C",
"0&	c #FDD8A1",
"a&	c #FCD4A0",
"b&	c #FADC9E",
"c&	c #443927",
"d&	c #FCDBA8",
"e&	c #FFD89D",
"f&	c #FFD99E",
"g&	c #FAD9A6",
"h&	c #FAD199",
"i&	c #FFDA95",
"j&	c #B59F70",
"k&	c #010103",
"l&	c #B3A67C",
"m&	c #FADB98",
"n&	c #FFDD9B",
"o&	c #FEDBA1",
"p&	c #F3D1A3",
"q&	c #C0A07A",
"r&	c #684A28",
"s&	c #594018",
"t&	c #A28C5B",
"u&	c #D0BD85",
"v&	c #F7CE96",
"w&	c #E8BF87",
"x&	c #E2B981",
"y&	c #EFC68E",
"z&	c #FED59D",
"A&	c #FFD9A1",
"B&	c #FFD8A0",
"C&	c #FFD9A8",
"D&	c #FFD59A",
"E&	c #FFD799",
"F&	c #F2D6A6",
"G&	c #443822",
"H&	c #060701",
"I&	c #A1A690",
"J&	c #BDA96E",
"K&	c #AE9D67",
"L&	c #B8AA7B",
"M&	c #AA9B70",
"N&	c #C3AC82",
"O&	c #E3BF8F",
"P&	c #FFD7A2",
"Q&	c #FFD399",
"R&	c #F3D798",
"S&	c #FFDD9A",
"T&	c #FFD59B",
"U&	c #B9A280",
"V&	c #010300",
"W&	c #020800",
"X&	c #AC9979",
"Y&	c #FFD69D",
"Z&	c #FFD79A",
"`&	c #FBD692",
" *	c #FAD69A",
".*	c #FCD8A6",
"+*	c #EBC8A0",
"@*	c #BE9C76",
"#*	c #B3966A",
"$*	c #D8BE8B",
"%*	c #E9D098",
"&*	c #FFE1A6",
"**	c #FFD79C",
"=*	c #FAD297",
"-*	c #FDD59A",
";*	c #FCD499",
">*	c #F8CB90",
",*	c #FDD08D",
"'*	c #FFDA98",
")*	c #F7D7A8",
"!*	c #4F3C2D",
"~*	c #040002",
"{*	c #0A0200",
"]*	c #060002",
"^*	c #080307",
"/*	c #000002",
"(*	c #000000",
"_*	c #3A2A10",
":*	c #E9D0A8",
"<*	c #FAD8A8",
"[*	c #FCDD9C",
"}*	c #F9CE8A",
"|*	c #FDD095",
"1*	c #BFA37C",
"2*	c #060400",
"3*	c #B8A27D",
"4*	c #FCCE93",
"5*	c #FFD698",
"6*	c #FFD994",
"7*	c #FDD496",
"8*	c #FFD6A0",
"9*	c #FFDBAD",
"0*	c #FAD4A7",
"a*	c #F7D3A1",
"b*	c #F9D99E",
"c*	c #FFD599",
"d*	c #FFD69C",
"e*	c #FFD79D",
"f*	c #FFD99F",
"g*	c #FFDC9E",
"h*	c #FBD08B",
"i*	c #FCD48E",
"j*	c #907256",
"k*	c #150000",
"l*	c #130000",
"m*	c #120000",
"n*	c #090002",
"o*	c #080002",
"p*	c #030000",
"q*	c #0B0700",
"r*	c #090200",
"s*	c #4C3E1B",
"t*	c #F0D8A8",
"u*	c #F9DCA4",
"v*	c #FFDA99",
"w*	c #FFD28E",
"x*	c #FFDB9D",
"y*	c #CCAB7E",
"z*	c #160700",
"A*	c #201500",
"B*	c #CAAB7F",
"C*	c #FFD396",
"D*	c #FFD995",
"E*	c #FFD594",
"F*	c #FED095",
"G*	c #FFD39C",
"H*	c #FFD6A1",
"I*	c #FFD7A0",
"J*	c #FBD395",
"K*	c #FFD297",
"L*	c #FBCE93",
"M*	c #FFD499",
"N*	c #FFD69B",
"O*	c #FCCF94",
"P*	c #FED196",
"Q*	c #FFD398",
"R*	c #F8CD98",
"S*	c #FFD798",
"T*	c #FFDA92",
"U*	c #F7D08D",
"V*	c #F3CF9B",
"W*	c #F8D89D",
"X*	c #F8D792",
"Y*	c #FAD5A0",
"Z*	c #F2CE9A",
"`*	c #FDDCA9",
" =	c #F4D2A2",
".=	c #F5CF9E",
"+=	c #FFD5A0",
"@=	c #FFDEA5",
"#=	c #FEC88C",
"$=	c #FFD491",
"%=	c #FFCD8B",
"&=	c #FFD18F",
"*=	c #FFDCA8",
"==	c #CAB188",
"-=	c #D0B78F",
";=	c #FFCD8F",
">=	c #FFD193",
",=	c #FFCF8D",
"'=	c #FFD292",
")=	c #FFCE93",
"!=	c #FFD296",
"~=	c #FCCE90",
"{=	c #FFD291",
"]=	c #FFD195",
"^=	c #FFD69A",
"/=	c #FFD397",
"(=	c #FDCF93",
"_=	c #FFD8A2",
":=	c #F5C98A",
"<=	c #FFD58D",
"[=	c #FED38E",
"}=	c #FFD796",
"|=	c #FBCF88",
"1=	c #FBD280",
"2=	c #FFD489",
"3=	c #FFD78E",
"4=	c #FFD38E",
"5=	c #FDCA89",
"6=	c #FFD294",
"7=	c #FFCB8F",
"8=	c #FFCB90",
"9=	c #FFCC92",
"0=	c #FFD694",
"a=	c #FCCB89",
"b=	c #FAD5A1",
"c=	c #FFD299",
"d=	c #FFCB8D",
"e=	c #FFD092",
"f=	c #FCCC8E",
"g=	c #FFD395",
"h=	c #FECE90",
"i=	c #FFD191",
"j=	c #FFD393",
"k=	c #FFCF8F",
"l=	c #FFCF94",
"m=	c #FDCD8F",
"n=	c #FFCF91",
"o=	c #FFD597",
"p=	c #F7CA87",
"q=	c #FDD28D",
"r=	c #FAC591",
"s=	c #FEC697",
"t=	c #FFCC9D",
"u=	c #FFD29D",
"v=	c #FBCF92",
"w=	c #FDD194",
"x=	c #FFD697",
"y=	c #FFD691",
"z=	c #F9CD86",
"A=	c #FBCF86",
"B=	c #FED289",
"C=	c #FFCD91",
"D=	c #FFCF90",
"E=	c #FBCB8B",
"F=	c #F9CD8E",
"G=	c #FBCD8F",
"H=	c #FECC8F",
"I=	c #FFD090",
"J=	c #FACD8C",
"K=	c #FDCD8D",
"L=	c #FFCD8E",
"M=	c #FFD194",
"N=	c #FECE8E",
"O=	c #F6CA89",
"P=	c #FBCD91",
"Q=	c #FFD6A3",
"R=	c #FFCEA0",
"S=	c #FDCB98",
"T=	c #F4CA90",
"U=	c #FCD391",
"V=	c #FAD28C",
"W=	c #FFD990",
"X=	c #FAD68C",
"Y=	c #F7D58B",
"Z=	c #FFCD94",
"`=	c #FFCE95",
" -	c #FECF8B",
".-	c #FFD192",
"+-	c #FFD39A",
"@-	c #F9CE97",
"#-	c #FDD08F",
"$-	c #FBCE8D",
"%-	c #FFCE91",
"&-	c #FFD091",
"*-	c #FFCE8F",
"=-	c #FFD293",
"--	c #FFCB9B",
";-	c #FAC991",
">-	c #F8CB8A",
",-	c #FFCA87",
"'-	c #FFD289",
")-	c #FED585",
"!-	c #FFCA91",
"~-	c #FFD198",
"{-	c #FFCD96",
"]-	c #FFD09D",
"^-	c #FACC9B",
"/-	c #FFCD97",
"(-	c #FFD098",
"_-	c #FFD089",
":-	c #FFCF89",
"<-	c #FCC98A",
"[-	c #FFCF97",
"                . + @ # @ $ % & % % % % % % % % * * = - ; * > =                                                                 ",
", , , , , , , , ' ) ! ~ { ] % + % % % % % % % % ^ + / ( ( _ ' : , , , , , , , , , , , , , , , , , , , , , , , , , , , , , , , , ",
"% % % % % % % % < [ } | } 1 [ < < < < < < < < < _ ) 2 % ( / ) ( % % % % % % % % % % % % % % % % % % % % % % % % % % % % % % % % ",
"] ] ] ] ] ] ] ] 3 4 5 6 7 8 9 [ @ @ @ @ @ @ @ @ : ) ) ' 0 _ _ ^ ] ] ] ] ] ] ] ] ] ] ] ] ] ] ] ] ] ] ] ] ] ] ] ] ] ] ] ] ] ] ] ] ",
"a a a a a a a a b ! c d e f 9 g h h h h h h h h i 3 4 3 j k ] k a a a a a a a a a a a a a a a a a a a a a a a a a a a a a a a a ",
"l l l l l l l l m n o p q r s t { { { { { { { { j u [ [ ! j 9 3 l l l l l l l l l l l l l l l l l l l l l l l l l l l l l l l l ",
"v v v v v v v v w x y z A B C D E E E E E E E E F a G H F a I b v v v v v v v v v v v v v v v v v v v v v v v v v v v v v v v v ",
"J J J J J J J J K L M N O P Q K R R R R R R R R S T U V W X Y Y J J J J J J J J J J J J J J J J J J J J J J J J J J J J J J J J ",
"Z Z Z Z Z Z Z Z `  ...+.@.#.$.%.&.*.=.R -.;.>.,.'.).!.~.{.].^./.(._.:.<.[.}.|.1.Z Z Z Z Z Z Z Z 2.3.4.5.6.7.8.9.Z Z Z Z Z Z Z Z ",
"0.0.0.0.0.0.0.0.a.b.c.d.e.f.g.h.i.j.k.l.m.n.o.p.q.r.s.t.u.v.w.x.y.z.A.B.C.D.E.F.0.0.0.0.0.0.0.0.G.H.I.J.F.K.L.M.0.0.0.0.0.0.0.0.",
"x.x.x.x.x.x.x.x.N.O.P.Q.R.S.T.U.V.W.X.Y.B.Z.`. +.+++@+#+$+%+&+;.I.*+=+l.-+;+>+,+x.x.x.x.x.x.x.x.A.'+)+!+~+{+/.]+x.x.x.x.x.x.x.x.",
"^+^+^+^+^+^+^+^+/+(+_+:+<+[+}+|+1+2+3+4+5+6+7+8+9+0+a+$+b+c+d+l.e+f+g+h+i+v.j+k+^+^+^+^+^+^+^+^+l+m+n+o+p+L.q+r+^+^+^+^+^+^+^+^+",
"s+s+s+s+s+s+s+s+e+t+u+v+w+x+y+z+A+B+C+D+E+F+G+H+I+J+Z K+L+M+N+f+O+P+Q+R+S+T+U+V+s+s+s+s+s+s+s+s+W+X+Y+Z+`+ @l..@s+s+s+s+s+s+s+s+",
"g+g+g+g+g+g+g+g++@h+@@#@$@%@w.&@*@=@-@;@>@,@'@)@!@~@{@]@^@]@/@(@_@:@<@[@}@|@1@2@g+g+g+g+g+g+g+g+3@4@5@I 6@7@8@9@g+g+g+g+g+g+g+g+",
"0@0@0@0@0@0@0@0@a@b@c@d@e@f@g@h@i@j@k@l@m@n@o@R p@q@r@s@t@u@v@w@x@y@z@A@B@C@D@E@0@0@0@0@0@0@0@0@F@G@H@I@J@K@L@M@0@0@0@0@0@0@0@0@",
"N@N@N@N@N@N@N@N@O@0@P@Q@g+R@S@T@U@V@W@X@Y@Z@`@ #.#+#4@@###+#$#c@%#&#*#=#-#;#>#,#N@N@N@N@N@N@N@N@'#)#!#~#{#]#^#/#N@N@N@N@N@N@N@N@",
"'#'#'#'#'#'#'#'#(#_#3@:#<#[#}#|#1#2#3#4#5#6#7#8#9#u+0#a#b#$#c#d#e#f#g#h#i#j#k#l#N@m#n#o#p#q#.#r#s#t#u#v#w#x#y###'#'#'#'#'#'#'#'#",
"'#'#'#'#'#'#'#'#z#A#B#C#D#E#F#G#H#I#J#K#L#M#N#O#P#Q#R#S#S#T#U#V#e#Q+W#.@X#Y#k#l#Z#`#Z#<# $`#.$+$@$#$$$%$&$*$=$-$'#'#'#'#'#'#'#'#",
";$;$;$;$;$;$;$;$>$,$'$)$Q@!$~${$]$^$/$($_$:$<$[$}$|$h+<@k+1$ $2$3$Q+4$_#5$6${#d#7$W+Q+8$8$9$0$a$b$c$d$e$f$g$h$i$;$;$;$;$;$;$;$;$",
"j$j$j$j$j$j$j$j$k$l$m$n$o$p$q$r$s$t$u$v$w$x$y$z$A$B$C$D$E$F$G$H$I$J$K$L$M$6$N$O$P$Q$T#T#b#T#R$S$T$U$q#V$W$X$Y$Z$j$j$j$j$j$j$j$j$",
"F@F@F@F@F@F@F@F@`$Q+&# %.%+%@%#%$%%%&%*%=%-%;%>%,%'%)%N@!%~%{%]%I$F@l$^%/%(%{#_%:%<%[%:%:%1$}%|%1%2%m$3%4%C@5%6%F@F@F@F@F@F@F@F@",
"{%{%{%{%{%{%{%{%7%8%9%0%a%b%c%d%e%f%g%4$h%i%j%k%l%m%n%P@o%p%-$q%r%{%s%t%u%(%{#Z#v%w%x%w%w%x%w%y%z%A%B%C%N$D%E%F%{%{%{%{%{%{%{%{%",
"q%q%q%q%q%q%q%q%G%H%I%J%K%L%M%N%O%P%m#Q%R%i$S%T%U%V%W%X%:%Y%Z%F%`% &.&+&u%@&{##&$&%&&&$&*&$&=&-&9$;&>&,&C@'&)&!&q%q%q%q%q%q%q%q%",
"~&~&~&~&~&~&~&~&2%{&]&^&/&(&_&:&<&e#[&}&|&1&2&A#3&4&5&6&7&p%8&9&`%0&a&b&c&@&>#d&e&A%e&e&f&F%A%f&g&h&i&j&D%k&l&m&~&~&~&~&~&~&~&~&",
"8&8&8&8&8&8&8&8&n&o&p&q&r&s&t&u&e&e&e&e&e&e&e&e&v&w&x&y&z&A&B&B&C&D&E&F&G&H&*$I&J&K&L&M&N&O&P&Q&R&S&T&U&V&W&X&Y&8&8&8&8&8&8&8&8&",
"Z&Z&Z&Z&Z&Z&Z&Z&`& *.*+*@*#*$*%*Z&Z&Z&Z&Z&Z&Z&Z&&***=*-*e&**;*;*>*,*'*)*!*{#~*{*]*^*/*(*C@_*:*<*[*}*|*1*N$2*3*4*Z&Z&Z&Z&Z&Z&Z&Z&",
"5*5*5*5*5*5*5*5*6*7*8*9*0*a*P$b*c*c*c*c*c*c*c*c*d*d*e*d*T&T&e*f*g*h*i*J$j*k*l*m*n*o*p*q*r*s*t*u*v*w*x*y*z*A*B*F$5*5*5*5*5*5*5*5*",
"C*C*C*C*C*C*C*C*D*E*F*G*H*I*Z&J*K*K*K*K*K*K*K*K*L*M*N*K*O*P*Q*Q*R*S*T*U* &V*W*X*Y*Z*`* =.=+=@=#=$=%=&=*===-=Q%;=C*C*C*C*C*C*C*C*",
">=>=>=>=>=>=>=>=,='=>=)=K*!=~={=]=]=]=]=]=]=]=]=]=^=^=!=]=/=/=(=_=:=<=[=E*}=|=1=2=3=4=5=6=7=8=9={=0=a=M*Y*b=c=d=>=>=>=>=>=>=>=>=",
"e=e=e=e=e=e=e=e=f=e=g=h=i=j=k=j=l=l=l=l=l=l=l=l=m=e=e=n=>=5*o=>=f=p=q=o=r=s=t=u=v=w=x=}=y=z=A=B=C=D=E=~=F=G=H=7=e=e=e=e=e=e=e=e=",
"I=I=I=I=I=I=I=I=|*]=g=J=K='=L=M=e=e=e=e=e=e=e=e=I=I=I=N=N=k=k=K=/='=O=P=Q=R=t=S=z&T=7*U=V=W=X=Y=Z=`=c*E* -,=.-+-I=I=I=I=I=I=I=I=",
"D=D=D=D=D=D=D=D=@-O*Z&#-$-'=H=%-%-%-%-%-%-%-%-%-D=&-&-&-*-*-D==---;-8&>-i=,-'-)-!-~-8=8=Z={-]-^-/-(-P*J=_-:-<-[-D=D=D=D=D=D=D=D="};
